<?xml version="1.0" standalone="yes"?>
<svg xmlns="http://www.w3.org/2000/svg" width="560" height="560">
<path style="fill:#ecec4e; stroke:none;" d="M369.003 6.5918C361.162 8.5423 359.859 23.214 369 21.6235C376.816 20.2635 378.991 4.1073 369.003 6.5918M120 174C121.355 181.299 118.354 215.032 134.891 205.82C140.668 202.602 138.697 195.281 138.169 190C136.933 177.641 132.76 155.466 115 165.533C102.406 172.672 97.8838 187.791 95.1991 201C89.9123 227.011 89.1759 258.003 119 269.571C151.037 281.997 182.815 255.938 212 246C211.384 260.131 203.758 274.678 199.333 288C191.263 312.301 183.049 341.839 168.215 363C146.56 393.89 106.595 413.375 72 391.856C53.8851 380.588 49.7833 359.696 43.9745 341C40.2468 329.002 35.8602 316.658 35.2091 304C34.6474 293.081 38.1703 280.818 39.7292 270C45.4191 230.513 59.6662 191.764 81.0532 158C91.5429 141.44 105.008 126.663 119 113.015C123.524 108.602 130.799 100.084 137.015 98.4375C142.93 96.8703 150.173 101.065 155 104.066C178.571 118.721 160.866 143.365 165.514 164C166.898 170.147 174.925 184.384 181.992 174.772C187.26 167.604 186.303 153.293 185.285 145C182.013 118.364 170.351 90.1079 139 89.2593C103.976 88.3112 69.0593 125.822 49.6512 151C35.1689 169.788 20.2155 194.177 13.2052 217C0.185172 259.388 5.51259 310.027 20.24 351C37.2856 398.423 102.341 430.252 146 398.51C182.719 371.814 199.021 323.682 211.975 282C216.353 267.91 218.935 251.16 225.558 238C230.145 228.885 241.078 221.427 248.079 213.961C260.702 200.496 271.954 185.923 284 172C285.38 198.654 278.002 226.178 278 253C277.999 269.371 276.974 285.607 277 302C277.022 315.617 277.801 333.675 284.137 346C291.199 359.736 305.282 362.211 316.985 351.812C332.25 338.248 334.927 314.484 341.344 296C353.242 261.728 362 223.44 362 187C362 163.919 352.858 142.706 327 138.329C316.196 136.501 307.026 143.089 297 145C299.346 137.067 299.328 128.171 301.235 120C304.88 104.388 309.479 88.9604 311.568 73C312.389 66.7265 305.165 56.2857 298.314 62.4529C293.232 67.028 293.879 80.5839 293 87C290.037 108.622 290.699 131.754 285.941 153C284.355 160.082 276.473 166.542 271.92 172C259.374 187.036 246.086 205.669 230 217C242.692 177.307 255.441 138.45 271.576 100C278.065 84.5364 284.422 64.2216 294.847 51.0394C300.993 43.2685 311.96 35.3776 321 31.3488C326.029 29.1075 334.616 29.0203 338.258 24.5811C344.847 16.5485 333.908 7.26031 326 8.47919C300.533 12.4047 286.469 43.0507 277.139 64C260.842 100.594 243.718 137.431 232.424 176C229.114 187.305 225.731 198.568 222.873 210C221.316 216.231 220.439 223.706 216.362 228.896C212.313 234.049 204.681 237.611 199 240.691C182.983 249.375 163.704 257.49 146 261.87C137.772 263.905 129.821 265.152 122 260.954C98.9617 248.587 100.5 219.441 106.156 198C108.325 189.774 111.913 177.975 120 174M382 25C390.144 23.6407 382.718 15.7777 382 25M365 26C365.725 35.1844 366.655 47.1345 371.97 54.9568C375.027 59.4562 380.108 61.2415 383 66C376.858 63.939 361.748 60.3044 357.708 55.2979C354.741 51.6224 360.802 45.3601 355.682 42.1975C349.448 38.3466 344.786 47.3866 349 52C334.368 53.3775 316.768 44.1992 303 50C305.886 57.5441 329.237 58.3659 337 59L337 60C331.926 60.4038 324.03 61.0661 320.608 65.3935C315.475 71.886 327.27 76.9201 332 77.8256C343.017 79.9345 344.371 72.3052 353.039 68.7384C363.283 64.5233 376.434 70.2088 384 77C375.571 78.1676 368.356 74.2309 360.004 78.6736C350.247 83.8632 353.711 93.2998 364 93.892C376.967 94.6382 381.367 81.1775 393 79.7083C399.77 78.8534 407.448 85.8451 412 90C406.767 90 399.799 88.8119 395.109 91.5725C388.32 95.5688 391.848 104.447 398.015 106.99C405.458 110.058 412.961 104.083 420 102.529C429.809 100.364 440.652 109.978 445 118C436.193 114.284 428.745 116.929 420 119C418.139 110.001 405.46 110.282 402.801 119.015C399.851 128.704 414.459 129.146 419 124L420 124C424.254 128.776 433.181 134.99 440 134.062C446.483 133.18 450.924 128.488 457.985 130.573C464.701 132.555 471.279 145.373 475 151L451 149C452.501 158.319 465.991 168.829 475 170.62C478.934 171.401 483.665 168.958 487.271 170.502C492.22 172.622 495.808 179.387 498 184L469 176C470.512 185.838 485.045 202.977 495 205.12C499.083 205.999 505.227 201.38 508.486 203.736C512.741 206.812 516.617 222.794 517.714 228C525.338 264.173 530.639 304.591 521.87 341C519.756 349.775 517.242 358.579 514.004 367C513.021 369.556 510.653 374.627 514.318 376.214C518.675 378.101 521.312 373.259 522.56 369.996C526.113 360.707 528.011 350.635 530.374 341C535.438 320.35 537.118 297.072 533.675 276C530.802 258.415 522.387 236.732 524 219C540.261 226.558 539 208.485 539 197C539 193.661 540.507 184.989 536.682 183.242C532.875 181.502 527.185 187.376 524 189C529.449 170.343 502.501 182.565 516.995 189.487C518.541 190.225 520.357 190.555 522 191L518 199C510.338 195.232 504.074 181.934 509.009 174.04C511.736 169.679 517.687 167.779 517.787 161.996C517.89 156.031 513.656 149.518 511.692 144C509.444 137.681 509.209 131.513 508 125L497.956 136.553L482 141C482.12 136.005 485.557 130.83 484.413 126C483.561 122.406 471.055 102.93 467.84 105.851C463.108 110.15 466.565 123.489 467 129C460.83 122.548 453.675 113.561 454.145 104C454.35 99.8189 457.122 96.2597 456.747 92C456.067 84.2863 448.2 67.2214 443.157 61.3225C438.82 56.2487 435.092 63.1902 434.215 67C432.292 75.3557 433.174 84.1287 436.681 92C439.669 98.7082 447.028 101.995 449 109C437.761 101.97 429.603 85.3911 417 83C419.892 68.088 418.803 46.8919 399 44C397.355 52.862 396.804 63.4648 400 72C382.698 70.0731 389.85 56.6352 388.8 46C387.549 33.3288 376.792 26.0325 365 26M432 47L433 47C437.111 49.9765 440.249 47.6036 441 43C431.345 42.8859 432.728 33.094 423.999 32.2577C409.319 30.8511 410.224 59.5777 426.981 51.1651C429.132 50.0856 430.469 48.7862 432 47M383 51L382 51L372 33C379.679 35.6108 385.344 42.8219 383 51M426 38C425.479 54.0512 411.103 39.1268 426 38M264 53C262.188 41.8652 249.176 45.0818 241 46.6111C219.132 50.7014 201.048 60.064 180 66.5872C175.144 68.0923 156.519 73.1402 157.117 79.8773C157.379 82.8165 161.058 82.2845 163.001 81.76C169.501 80.0047 175.554 76.1507 182 74C209.721 64.7506 233.982 53.0033 264 53M404 53C409.51 57.2102 414.223 61.8475 415 69L414 69L411 63L409 63L412 79C405.166 75.2474 399.88 60.0148 404 53M352 61C348.889 65.4036 343.284 64.0617 339 62L352 61M339 74L325 70C330.641 64.0878 335.111 68.4827 339 74M462.044 69.1211C452.735 73.2683 457.912 88.6693 467.891 84.142C475.931 80.4944 470.566 65.3247 462.044 69.1211M440 70L450 92C438.638 95.2337 436.769 77.7 440 70M466 74L465 80L464 80L466 74M372 81L372 82L366 88L361 87C363.636 82.6841 367.042 81.2682 372 81M340.999 82.5841C326.679 86.0902 331.604 104.034 343.981 100.164C352.648 97.4543 351.666 79.9724 340.999 82.5841M344 87C345.957 98.9836 332.23 89.4547 344 87M381 88C380.605 98.7469 391.889 90.271 381 88M475 94L482 95C481.117 89.4844 477.509 89.0799 475 94M411 96L402 103L395 100C398.891 95.0872 405.277 92.5944 411 96M351 101C360.169 102.542 353.663 92.2366 351 101M490 100.573C475.839 104.636 481.401 126.657 494.996 122.066C507.293 117.914 505.033 96.2584 490 100.573M116 105C110.529 115.546 99.0798 124.126 91.1736 133C80.2698 145.238 71.1048 160.619 63.3086 175C52.747 194.482 45.4233 214.728 39.4282 236C36.6473 245.868 36.0707 256.539 32 266C25.7384 255.547 30.0741 233.579 31.7292 222C37.3949 182.362 54.6392 152.95 85 126.576C93.9884 118.767 103.739 107.364 116 105M457 111C466.222 110.282 458.359 102.856 457 111M492.961 106.582C498.348 105.851 497.817 115.002 492.961 115.534C486.879 116.2 487.496 107.323 492.961 106.582M414 116C414.992 120.36 413.36 121.992 409 121L414 116M471 118C475.046 120.92 477.953 123.825 477 129C472.872 126.741 469.297 122.924 471 118M435 121L435 122L429 125C430.099 121.679 431.59 121.263 435 121M422 139C425.941 138.358 427.193 136.873 428 133C423.751 133.489 422.343 134.703 422 139M457.015 134.881C449.208 135.974 452.404 146.411 459.852 144.642C465.512 143.298 462.474 134.117 457.015 134.881M505 140L512 163L511 164L509 164C505.721 154.414 498.573 150.833 502 140L505 140M483 146C485.941 147.387 491.108 146.687 493.301 148.646C497.326 152.242 501.831 169.696 502 175C496.407 171.348 483.22 152.556 483 146M521 151L527 151C526.113 145.699 522.451 146.227 521 151M545.549 149.175C543.366 150.579 544.869 155.485 547.451 153.825C549.634 152.421 548.131 147.515 545.549 149.175M308 151.438C313.495 150.536 318.372 155.272 321.711 159.015C330.284 168.627 335.243 180.318 337 193C342.232 230.755 335.391 278.847 320.861 314C316.956 323.448 312.075 344.71 300.014 346.893C294.968 347.806 292.923 341.726 291.674 338C288.199 327.629 287.515 315.854 287.039 305C285.34 266.187 288.437 226.571 292.17 188C293.295 176.374 292.687 153.949 308 151.438M440.224 152.762C434.486 155.124 435.853 167.051 442.907 164.377C449.064 162.043 447.554 149.744 440.224 152.762M475 158C469.779 161.28 464.363 161.32 462 155L463 154L475 158M532.001 156.533C518.068 159.931 525.128 179.078 537.995 175.566C550.291 172.21 545.269 153.297 532.001 156.533M534.975 161.662C540.738 159.846 540.618 168.681 535.896 170.149C529.491 172.141 529.574 163.364 534.975 161.662M454 169L454 174L456 174L456 169L454 169M499 193C495.151 191.748 490.704 189.093 488 193C483.486 190.893 480.36 187.845 479 183C486.204 183.33 495.118 186.602 499 193M532 192C532.526 198.661 536.028 210.125 529 214L529 199L524 208C521.052 200.959 525.57 194.747 532 192M301 536L241 533.911L213 533L213 535C232.11 546.101 266.31 546.396 288 544.911C295.549 544.393 303.435 541.875 311 542.274C340.312 543.821 366.173 558.166 396 547.188C411.466 541.496 425.629 535.408 440 527.308C446.011 523.92 453.885 517.174 450.397 509.148C446.664 500.56 432.066 509.85 428.015 513.326C423.488 517.211 420.969 522.897 415.996 526.301C393.24 541.878 356.884 543.322 332 532.768C312.709 524.587 304.343 502.364 301.081 483C291.716 427.411 333.987 378.466 373 344.576C382.958 335.925 390.349 321.081 402 315C403.724 323.326 407.285 327.35 415 331C380.18 358.614 361.911 390.464 359.961 435C358.913 458.921 361.485 479.66 385 492.688C411.806 507.538 458.068 499.327 481 478.826C490.798 470.067 496.595 458.816 501.861 447C511.59 425.169 517.802 387.948 494 372.105C461.159 350.246 426.982 391.808 425.383 423C424.847 433.459 431.829 451.468 443.606 437.891C452.376 427.781 445.297 415.264 445.726 404C446.099 394.217 453.967 386.06 462 381.468C477.874 372.393 490.508 382.925 493.54 399C500.541 436.109 484.416 466.343 448 478.329C427.349 485.127 400.505 489.973 388.494 467C384.426 459.22 385.63 450.404 384.83 442C382.328 415.701 384.728 374.904 403.465 354.184C415.919 340.412 444.183 334.362 449.069 314.001C450.071 309.827 446.115 306.034 442.093 308.047C436.203 310.994 435.222 320.249 427.999 321.458C422.086 322.448 411.315 313.23 412.876 307C414.704 299.703 425.461 291.921 431.001 287.285C449.275 271.995 469.561 249.904 479.676 228C485.053 216.357 481.079 201.227 468 197.058C452.992 192.274 436.615 202.159 428.28 214.001C415.653 231.942 406.065 248.042 402.25 270C400.767 278.537 402.908 293.854 398.397 301C388.726 316.319 372.163 329.829 359 342.09C329.39 369.67 301.481 394.068 285.576 432C278.792 448.177 271.664 469.3 275.899 487C280.551 506.445 290.227 519.711 301 536M411 290C411.194 266.54 423.932 239.708 438.755 222.001C443.032 216.891 453.966 204.312 461.895 208.222C471.998 213.204 466.577 228.981 462.571 236C451.275 255.79 430.5 278.199 411 290M502.044 217.842C492.796 219.573 501.106 231.142 507.852 229.638C514.984 228.048 508.195 216.69 502.044 217.842M55 418L55 419C67.4103 419.577 61.7105 424.468 59 432C68.1183 434.221 83.5865 422.593 86 414C75.2076 411.996 64.7989 412.837 55 418M86.9807 427.786C82.4158 428.417 67.4709 435.003 65.6227 439.387C63.9996 443.236 71.7188 454.042 75.8943 453.534C81.6548 452.833 75.5531 444.206 76.9938 441.108C79.3838 435.969 87.0551 436.57 90.338 432.367C92.4154 429.708 89.7568 427.403 86.9807 427.786M94 469L89 456L101 462L97 450L111 456C109.451 451.907 106.234 443.978 101.895 442.216C98.1755 440.705 93.8706 444.43 91 446.334C87.7201 448.51 82.8817 450.961 81.6582 455.015C79.6258 461.748 88.3135 468.357 94 469M110 494C119.317 493.573 136.435 486.115 138 476L126 480C125.993 477.423 124.452 465.07 120.024 472.192C117.876 475.647 119.827 480.231 117.821 483.826C115.595 487.816 111.605 489.485 110 494M154 519C152.327 513.388 149.316 511.116 144 509L145 505L155 511L154 500L172 505C169.805 501.34 166.689 499.016 163 496.876C158.836 494.46 152.203 490.188 147.133 491.358C143.51 492.194 142.204 497.069 140.752 500C135.762 510.073 140.565 522.078 154 519M172 506C170.045 509.995 164.839 530.591 174.04 529.418C178.875 528.802 182.835 522.231 186 519C185.514 524.579 182.443 530.57 185.573 535.891C187.436 539.059 197.06 542.965 198.079 537C198.578 534.076 191.083 532.069 191 527C192.899 527.805 205.267 531.214 203.248 525.324C202.458 523.018 196.939 521.414 195 520L210 522C204.681 506.484 184.003 511.215 175 520C175.981 514.719 177.399 508.977 172 506M393.956 508.746C383.378 509.097 367.691 517.564 358.001 521.877C355.8 522.856 348.112 528.083 354.233 529.643C357.845 530.563 362.621 528.432 366 527.33C374.961 524.41 389.572 521.569 396.667 515.186C399.634 512.516 397.83 508.618 393.956 508.746z"/>
</svg>
