 <svg  version="1.0" xmlns="http://www.w3.org/2000/svg"  width="450.000000pt" height="461.000000pt" viewBox="0 0 450.000000 461.000000"  preserveAspectRatio="xMidYMid meet">  <g transform="translate(0.000000,461.000000) scale(0.050000,-0.050000)" fill="#ebeb4b" stroke="none"> <path d="M8990 4610 c0 -2541 2 -3583 5 -2317 3 1267 3 3346 0 4620 -3 1275 -5 238 -5 -2303z"/> <path d="M5878 8998 c-97 -36 -115 -166 -32 -234 90 -75 234 148 150 232 -28 28 -46 28 -118 2z"/> <path d="M5170 8963 c-143 -48 -251 -115 -322 -198 -95 -114 -277 -389 -321 -485 -17 -38 -66 -145 -109 -237 -43 -92 -78 -170 -78 -174 0 -4 -40 -90 -90 -191 -49 -101 -90 -197 -90 -213 0 -16 -17 -62 -38 -102 -37 -69 -133 -312 -211 -533 -20 -55 -53 -145 -75 -200 -48 -121 -185 -554 -228 -720 -17 -66 -47 -187 -67 -270 -50 -205 -46 -200 -197 -293 -178 -110 -279 -159 -483 -238 -94 -36 -249 -96 -344 -135 -201 -81 -374 -107 -495 -75 -248 67 -441 440 -381 736 13 63 30 165 39 225 16 118 61 240 135 373 94 169 134 120 128 -158 -5 -207 8 -239 114 -274 116 -38 200 66 162 199 -8 28 -16 91 -17 141 -11 486 -418 473 -618 -19 -24 -59 -44 -125 -44 -146 0 -22 -19 -113 -42 -203 -202 -787 476 -1295 1192 -893 39 22 127 58 195 81 69 22 213 83 320 136 135 66 195 87 195 67 0 -40 -58 -247 -81 -289 -10 -19 -19 -44 -19 -57 0 -12 -13 -50 -29 -85 -16 -35 -65 -184 -110 -333 -44 -148 -106 -324 -139 -390 -32 -66 -71 -151 -87 -190 -16 -38 -63 -146 -105 -240 -41 -93 -85 -192 -97 -220 -39 -89 -148 -208 -282 -310 -73 -55 -166 -129 -207 -165 -186 -162 -503 -259 -649 -199 -40 17 -117 38 -169 45 -53 8 -109 25 -126 39 -16 14 -59 32 -94 39 -171 36 -399 371 -457 671 -7 39 -34 133 -59 210 -117 360 -144 529 -113 704 13 75 41 264 62 421 21 156 44 294 52 306 7 12 27 87 43 166 16 78 43 158 60 177 17 19 33 68 37 110 16 203 398 971 589 1186 44 50 80 97 80 106 0 9 43 62 95 117 52 56 120 129 151 164 118 132 187 198 269 255 46 33 94 77 105 98 56 105 362 -1 510 -176 55 -66 83 -454 39 -526 -92 -148 -8 -505 124 -530 122 -23 147 22 178 312 18 173 -38 520 -106 650 -17 33 -41 80 -53 105 -12 25 -29 45 -37 45 -9 0 -24 21 -34 48 -10 26 -81 89 -158 140 -248 165 -559 144 -883 -58 -60 -38 -128 -77 -150 -87 -22 -10 -125 -99 -230 -198 -104 -99 -220 -205 -257 -236 -112 -94 -380 -430 -446 -559 -46 -90 -81 -153 -137 -240 -61 -95 -255 -495 -266 -550 -6 -27 -30 -126 -55 -220 -76 -293 -62 -1113 26 -1500 14 -60 34 -123 45 -140 28 -43 69 -164 70 -205 0 -55 140 -350 198 -419 84 -99 239 -247 309 -294 43 -28 115 -77 161 -107 121 -81 276 -155 326 -155 24 0 49 -9 56 -20 7 -11 38 -20 70 -20 32 0 63 -9 70 -20 7 -11 103 -20 221 -20 204 0 266 14 409 91 28 15 86 46 130 68 180 92 571 514 649 701 53 125 188 415 261 560 20 39 56 133 80 210 25 77 89 271 143 430 54 160 120 376 148 480 67 257 82 291 166 361 40 33 82 70 93 82 11 12 66 68 122 124 56 57 128 139 160 183 32 44 108 130 170 190 62 61 152 164 199 230 105 148 97 139 109 127 5 -5 1 -63 -9 -128 -10 -66 -24 -186 -31 -269 -6 -82 -24 -315 -40 -518 -16 -202 -25 -373 -21 -381 5 -8 1 -157 -9 -332 -32 -584 23 -1050 142 -1217 118 -164 202 -181 418 -85 111 50 300 328 300 441 0 24 19 92 42 152 23 61 49 137 58 170 35 125 105 322 134 376 16 31 25 61 19 67 -5 6 3 48 20 94 16 46 42 146 57 223 15 77 49 257 77 401 69 359 97 591 93 786 -5 233 -18 327 -49 362 -17 19 -31 43 -31 54 0 38 -198 224 -274 258 -42 19 -107 48 -146 65 -97 43 -354 6 -464 -66 -48 -32 -76 -41 -76 -25 0 105 49 403 79 485 20 55 52 181 71 280 19 99 47 243 63 320 32 156 15 230 -51 230 -22 0 -45 9 -52 20 -38 62 -130 -1 -140 -94 -9 -93 -30 -249 -50 -366 -10 -60 -23 -182 -30 -270 -7 -88 -21 -227 -31 -310 -9 -82 -23 -221 -30 -308 l-13 -158 -123 -143 c-68 -79 -172 -204 -232 -277 -60 -74 -116 -134 -124 -134 -9 0 -53 -50 -98 -112 -46 -61 -120 -145 -164 -185 -45 -40 -100 -91 -121 -113 -39 -40 -39 -40 -26 10 7 28 31 113 51 190 53 195 404 1221 448 1307 45 88 88 186 143 323 66 164 89 215 233 512 64 133 117 251 117 263 0 24 171 185 197 185 10 0 53 31 96 69 87 78 165 114 337 154 115 28 120 32 126 96 16 161 -108 256 -266 204z m-3310 -1537 c0 -7 -44 -59 -98 -115 -251 -260 -357 -377 -392 -433 -11 -18 -74 -111 -140 -207 -256 -372 -462 -811 -552 -1177 -10 -41 -26 -91 -36 -110 -10 -19 -33 -119 -53 -224 -77 -416 -106 -421 -115 -20 -4 229 74 735 133 863 18 37 35 99 39 139 9 87 109 267 216 391 43 49 78 97 78 107 0 30 546 571 638 632 260 172 282 184 282 154z m3286 -871 c241 -260 301 -561 247 -1245 -20 -254 -167 -1019 -213 -1108 -9 -18 -36 -81 -60 -142 -24 -60 -56 -137 -69 -170 -14 -33 -41 -98 -61 -144 -39 -92 -176 -216 -221 -198 -186 71 -227 849 -118 2232 59 754 68 788 219 883 88 55 145 33 276 -108z"/> <path d="M6107 8769 c-7 -18 -3 -41 9 -53 31 -31 84 -4 84 43 0 50 -75 57 -93 10z"/> <path d="M5850 8605 c43 -326 95 -430 235 -473 19 -6 35 -30 35 -54 0 -32 -6 -38 -25 -23 -26 21 -160 77 -319 134 l-93 33 29 71 c37 86 21 143 -44 159 -81 21 -179 -130 -103 -158 86 -30 -36 -35 -210 -8 -351 56 -464 62 -492 28 -44 -54 23 -94 159 -94 66 0 180 -15 254 -34 l134 -35 -81 -11 c-245 -35 -304 -140 -132 -235 159 -87 309 -69 371 45 32 58 44 64 168 78 169 20 494 -129 378 -174 -14 -5 -43 3 -64 18 -122 90 -449 -60 -394 -181 58 -128 350 -108 432 30 21 37 57 65 92 72 32 6 62 23 68 38 17 46 178 -17 301 -117 l59 -49 -100 10 c-181 17 -294 -70 -240 -185 60 -125 175 -141 363 -49 125 60 241 45 337 -45 38 -37 93 -87 121 -114 62 -57 56 -71 -18 -43 -82 32 -195 25 -277 -17 -69 -35 -74 -35 -74 -3 0 108 -150 132 -240 38 -71 -75 -72 -77 -19 -144 56 -71 181 -75 228 -9 17 25 31 35 31 22 0 -24 154 -122 250 -159 52 -20 72 -16 150 29 124 71 297 41 299 -51 1 -14 10 -25 21 -25 11 0 20 -12 20 -26 0 -14 36 -65 80 -114 82 -90 90 -117 27 -84 -47 24 -316 43 -346 25 -28 -18 -5 -81 29 -81 14 0 41 -25 60 -55 93 -146 315 -256 412 -204 66 35 96 19 179 -93 96 -129 93 -145 -15 -89 -85 44 -342 106 -370 89 -26 -16 -19 -68 11 -80 15 -5 70 -73 123 -149 144 -211 285 -286 399 -212 75 50 104 41 117 -36 10 -64 23 -98 95 -261 15 -33 33 -123 41 -200 22 -210 51 -408 77 -520 74 -313 50 -926 -48 -1260 -17 -55 -48 -162 -70 -237 -22 -76 -50 -150 -63 -165 -36 -44 -6 -88 62 -88 41 0 65 12 72 35 7 19 19 53 27 75 48 120 144 509 182 736 28 164 17 766 -15 824 -25 45 -62 261 -86 500 -10 88 -31 200 -49 248 -37 103 -30 117 40 85 144 -65 192 4 190 274 -1 117 0 239 3 271 8 83 -73 88 -147 9 -50 -53 -114 -81 -87 -37 57 93 -46 195 -148 145 -105 -51 -39 -185 90 -185 23 0 19 -17 -16 -79 -52 -90 -82 -81 -131 39 -16 39 -41 84 -55 100 -55 63 -14 238 63 270 110 46 121 101 52 262 -87 203 -100 249 -102 346 -1 96 -24 134 -69 116 -18 -7 -26 -29 -20 -59 12 -63 -125 -221 -146 -167 -17 44 -72 40 -135 -9 l-52 -41 -13 52 c-8 34 -2 64 20 87 58 65 39 135 -68 253 -55 61 -100 129 -100 151 0 45 -52 75 -81 46 -25 -25 -33 -218 -13 -317 l17 -80 -88 90 c-109 113 -167 338 -108 422 47 67 43 86 -64 297 -53 105 -104 218 -112 251 -26 108 -115 109 -151 0 -71 -216 0 -518 140 -593 40 -21 76 -59 83 -87 21 -78 -18 -61 -141 60 -62 60 -139 131 -172 158 -35 28 -59 67 -60 95 0 40 -10 47 -70 47 -38 0 -69 9 -67 20 2 11 15 77 29 146 32 154 11 204 -159 375 -145 147 -171 135 -179 -81 -3 -86 4 -183 15 -216 27 -77 20 -82 -62 -48 -97 40 -173 194 -128 258 116 166 -79 476 -299 476 -51 0 -52 -3 -40 -95z m221 -100 c53 -58 69 -92 69 -151 0 -85 -28 -84 -49 1 -23 94 -69 148 -112 135 -32 -10 -39 -3 -39 39 0 74 49 65 131 -24z m449 -291 c73 -64 120 -137 119 -183 0 -35 -5 -33 -30 14 -65 119 -106 32 -46 -97 44 -93 39 -131 -10 -90 -16 13 -25 40 -19 60 5 21 -4 41 -21 48 -35 13 -73 133 -73 229 0 76 12 79 80 19z m-880 -92 c0 -45 -165 -55 -200 -12 -22 26 -10 30 88 30 61 0 112 -8 112 -18z m-300 -112 c0 -40 10 -50 51 -50 29 0 46 -9 39 -20 -20 -32 -115 -23 -177 18 l-57 37 47 33 c65 46 97 40 97 -18z m1785 -176 c89 -194 91 -206 24 -219 -74 -14 -110 53 -123 234 -15 193 6 190 99 -15z m-1200 -36 c-45 -13 -65 -31 -65 -59 0 -26 -14 -39 -40 -39 -22 0 -40 11 -40 25 0 36 100 94 160 93 44 -1 42 -4 -15 -20z m651 -215 c17 -11 -1 -24 -55 -40 -47 -14 -81 -37 -81 -54 0 -35 -4 -35 -69 -6 -64 30 -64 40 4 82 58 36 158 45 201 18z m64 -384 c0 -28 -14 -39 -50 -39 -57 0 -64 23 -18 69 37 37 68 24 68 -30z m972 -50 c43 -56 49 -76 30 -95 -29 -28 -122 71 -122 131 0 54 33 42 92 -36z m-662 7 c-22 -12 -47 -32 -55 -44 -10 -15 -21 -12 -34 8 -21 33 15 57 89 58 40 1 40 1 0 -22z m1130 -327 c0 -16 17 -68 37 -114 64 -150 81 -214 59 -227 -28 -18 -55 30 -56 97 0 45 -9 55 -48 55 -57 0 -86 102 -52 189 20 54 60 54 60 0z m-278 -102 c62 54 113 28 126 -62 16 -121 61 -251 90 -261 27 -9 29 -77 2 -94 -11 -7 -20 -2 -20 10 0 13 -27 62 -60 110 -33 48 -60 93 -60 101 0 7 -36 56 -80 109 -83 99 -112 175 -43 113 20 -18 40 -30 45 -26z m-224 -136 c27 -28 26 -31 -10 -31 -22 0 -51 -11 -64 -24 -27 -27 -131 56 -111 89 17 27 148 3 185 -34z m302 -483 c133 -78 149 -109 30 -59 -81 34 -110 27 -111 -25 0 -33 -138 106 -139 141 0 37 108 9 220 -57z m640 -186 c0 -65 5 -131 10 -146 13 -32 -40 -112 -60 -92 -8 7 -4 57 7 110 16 74 15 102 -5 122 -34 35 -74 -12 -93 -112 l-14 -74 -3 76 c-2 86 24 145 86 198 65 54 72 45 72 -82z"/> <path d="M6686 8565 c-121 -107 -89 -304 50 -305 56 0 157 50 171 85 8 20 14 20 28 -1 29 -40 125 -9 125 40 0 34 -11 39 -70 32 -56 -6 -70 -1 -70 27 0 72 -44 133 -105 145 -83 17 -84 16 -129 -23z m130 -130 c-7 -72 -104 -109 -128 -48 -19 49 29 113 84 113 45 0 50 -7 44 -65z"/> <path d="M3890 8368 c-66 -17 -165 -34 -220 -40 -105 -11 -163 -29 -310 -93 -49 -22 -117 -51 -150 -65 -33 -14 -101 -45 -150 -68 -50 -23 -122 -47 -160 -55 -39 -8 -110 -35 -158 -60 -48 -26 -99 -47 -112 -47 -38 0 -130 -79 -130 -112 0 -67 87 -53 262 42 29 16 128 52 220 81 154 47 239 80 348 135 22 11 54 26 70 34 17 8 50 24 75 37 24 13 76 23 114 23 38 0 121 14 185 31 92 25 272 45 431 49 25 0 17 74 -10 95 -45 37 -183 42 -305 13z"/> <path d="M7340 7955 c-46 -75 -50 -107 -15 -129 14 -9 25 -29 25 -46 0 -64 154 -46 191 22 35 65 7 168 -52 195 -79 36 -106 28 -149 -42z m126 -48 c18 -17 -24 -90 -45 -78 -10 6 -13 29 -7 51 11 41 29 50 52 27z"/> <path d="M5377 7746 c-37 -30 -68 -54 -70 -55 -42 -17 -16 -94 46 -142 118 -90 215 -64 239 63 32 170 -83 242 -215 134z m139 -68 c10 -55 -47 -110 -84 -80 -42 35 -41 75 3 100 43 25 73 18 81 -20z"/> <path d="M6090 7680 c-17 -28 26 -100 61 -100 17 0 35 14 42 30 22 58 -71 122 -103 70z"/> <path d="M7634 7671 c-44 -44 -43 -66 6 -81 73 -23 99 16 54 78 -25 34 -29 34 -60 3z"/> <path d="M5635 7557 c-46 -25 -21 -77 37 -77 34 0 48 11 48 38 0 46 -41 65 -85 39z"/> <path d="M7850 7506 c-129 -31 -204 -197 -127 -280 112 -120 241 -108 300 27 77 173 -6 293 -173 253z m107 -143 c14 -102 -101 -160 -142 -71 -21 47 -18 57 24 91 60 49 109 40 118 -20z"/> <path d="M7312 7388 c-18 -47 15 -75 67 -58 26 8 41 27 37 47 -9 46 -87 54 -104 11z"/> <path d="M6752 6948 c-15 -39 1 -68 38 -68 32 0 75 68 56 87 -24 25 -82 13 -94 -19z"/> <path d="M7252 6922 c-51 -56 -33 -107 44 -129 90 -26 141 20 113 102 -25 70 -106 84 -157 27z"/> <path d="M8340 6741 c-17 -33 -15 -44 9 -53 47 -18 95 8 87 47 -10 50 -70 54 -96 6z"/> <path d="M8713 6727 c-21 -21 -15 -83 9 -98 32 -20 82 38 67 77 -14 35 -52 45 -76 21z"/> <path d="M7001 6641 c-45 -84 -13 -181 60 -181 78 0 131 140 75 196 -37 37 -112 29 -135 -15z"/> <path d="M8476 6594 c-80 -31 -121 -126 -85 -195 91 -178 329 -138 329 56 0 147 -92 200 -244 139z m157 -107 c17 -71 -56 -138 -115 -106 -51 28 -48 87 7 126 65 45 92 40 108 -20z"/> <path d="M7240 6373 c0 -37 19 -52 52 -39 42 16 33 66 -12 66 -22 0 -40 -12 -40 -27z"/> <path d="M7230 5952 c-203 -70 -283 -126 -365 -256 -44 -69 -113 -166 -155 -216 -159 -190 -286 -587 -304 -945 l-12 -245 -123 -120 c-68 -66 -149 -156 -181 -200 -60 -85 -89 -115 -230 -238 -50 -42 -191 -173 -314 -290 -123 -116 -290 -273 -370 -347 -194 -180 -404 -444 -468 -588 -28 -64 -72 -162 -97 -217 -188 -414 -260 -817 -182 -1028 15 -39 42 -123 60 -185 39 -131 135 -298 252 -438 l82 -98 -57 -15 c-65 -18 -356 -18 -486 0 -211 30 -840 76 -859 64 -70 -43 103 -121 309 -140 44 -4 134 -14 200 -22 66 -8 156 -17 200 -19 44 -3 159 -11 255 -19 124 -10 236 -4 387 20 159 25 226 28 265 12 88 -36 439 -100 763 -140 125 -15 453 30 540 75 17 8 84 31 150 51 127 39 490 212 490 233 0 7 39 29 87 49 127 52 204 243 125 308 -39 33 -198 13 -233 -29 -13 -16 -32 -29 -42 -29 -24 0 -157 -128 -157 -151 0 -28 -105 -129 -135 -129 -15 0 -92 -31 -172 -68 -477 -223 -1274 -102 -1425 218 -15 33 -51 99 -80 147 -174 293 -210 918 -68 1183 11 21 20 54 20 74 1 68 174 373 315 553 35 46 65 95 65 111 0 15 30 56 67 91 37 35 91 101 121 147 29 46 59 84 68 84 18 0 107 82 206 191 40 43 146 142 237 219 91 77 178 164 193 194 31 60 225 276 248 276 8 0 21 -36 28 -81 11 -68 27 -89 104 -138 l92 -59 -85 -56 c-237 -156 -599 -600 -599 -735 0 -8 -17 -39 -37 -68 -21 -29 -53 -120 -71 -201 -19 -81 -42 -164 -53 -183 -26 -49 -40 -200 -49 -529 l-7 -280 69 -145 c96 -199 232 -330 448 -430 l169 -79 271 21 c753 60 1093 272 1321 825 33 80 69 156 81 171 26 31 64 293 64 437 -1 948 -1104 923 -1297 -30 -8 -38 -28 -90 -45 -116 -25 -39 -26 -63 -7 -147 13 -55 23 -122 23 -148 0 -119 202 -106 278 18 61 99 75 268 32 381 -143 372 451 758 673 438 108 -155 141 -707 52 -880 -134 -265 -168 -315 -262 -390 -135 -106 -393 -225 -553 -255 -71 -13 -166 -31 -210 -40 -120 -25 -345 -26 -359 -2 -8 12 -28 21 -45 21 -52 0 -168 100 -190 162 -11 32 -27 58 -36 58 -65 0 -97 725 -45 1030 63 371 127 584 185 620 11 7 20 32 21 56 0 46 103 174 139 174 11 0 20 7 20 17 0 24 290 203 329 203 19 0 39 16 45 35 5 19 44 62 87 95 42 33 83 76 90 96 7 19 36 57 65 84 45 42 49 56 33 104 -30 87 -119 88 -164 4 -115 -215 -201 -239 -344 -99 -130 127 -127 149 50 328 84 86 181 172 216 191 35 19 93 75 129 124 37 48 117 142 179 208 170 183 340 415 423 580 149 295 -127 592 -448 482z m184 -190 c146 -137 57 -403 -241 -724 -84 -90 -153 -172 -153 -180 0 -9 -42 -49 -94 -88 -52 -40 -151 -126 -220 -191 l-126 -119 0 65 c1 36 10 101 22 145 11 44 28 112 37 150 27 114 174 436 230 502 28 34 51 72 51 86 0 48 239 302 325 345 108 54 119 55 169 9z"/> <path d="M7979 5599 l-41 -41 43 -59 c69 -98 199 -106 199 -12 0 120 -124 189 -201 112z"/> <path d="M1032 2485 c-9 -8 -47 -24 -85 -35 -88 -25 -88 -61 0 -53 41 3 76 -6 91 -25 29 -35 14 -72 -30 -72 -16 0 -37 -20 -46 -45 -42 -110 41 -100 229 30 152 104 202 158 179 195 -14 23 -316 27 -338 5z"/> <path d="M1320 2232 c-38 -25 -113 -62 -165 -81 -52 -20 -103 -46 -112 -59 -22 -27 7 -112 37 -112 12 0 35 -31 51 -70 31 -73 86 -92 126 -44 16 19 11 43 -18 91 -59 96 -50 112 91 172 146 62 164 80 129 122 -32 39 -56 35 -139 -19z"/> <path d="M1441 1953 c-180 -127 -180 -127 -96 -247 109 -153 226 -142 124 12 -63 95 -48 140 19 57 74 -93 179 -69 111 26 -83 116 -43 153 52 49 43 -46 76 -66 97 -58 40 15 41 37 4 74 -16 15 -45 63 -65 106 -50 105 -73 103 -246 -19z"/> <path d="M1922 1572 c-14 -17 -24 -64 -22 -106 6 -117 5 -119 -70 -163 -70 -42 -92 -92 -46 -108 24 -8 165 61 336 163 144 87 123 174 -25 102 l-73 -36 -6 83 c-6 89 -50 119 -94 65z"/> <path d="M2308 1225 c-12 -38 -52 -121 -100 -210 -44 -79 -20 -127 83 -166 49 -19 89 -42 89 -52 0 -9 18 -17 40 -17 25 0 40 13 40 36 0 45 -55 124 -86 124 -52 1 -79 34 -59 71 18 32 24 31 66 -18 77 -88 158 -67 108 29 -58 111 -31 118 147 34 196 -92 123 29 -77 128 -166 83 -235 94 -251 41z"/> <path d="M2734 985 c-5 -8 -16 -60 -26 -115 -42 -251 52 -328 183 -150 79 106 116 106 74 -1 -63 -160 22 -284 170 -249 47 11 66 95 20 89 -62 -9 -93 4 -106 43 -15 47 18 96 40 60 19 -31 142 -27 168 4 29 35 -8 74 -70 74 -48 0 -76 29 -58 59 7 10 51 1 104 -22 172 -77 175 22 3 119 l-94 53 -42 -44 c-45 -49 -71 -56 -90 -25 -25 40 -107 20 -157 -40 l-50 -60 11 110 c11 104 -40 164 -80 95z"/> <path d="M6190 932 c-66 -24 -151 -58 -190 -76 -38 -17 -119 -47 -180 -67 -181 -57 -235 -102 -185 -152 32 -32 219 23 594 172 170 68 191 88 140 139 -38 38 -27 39 -179 -16z"/> </g> </svg> 