<?xml version="1.0" standalone="no"?>
<!DOCTYPE svg PUBLIC "-//W3C//DTD SVG 20010904//EN"
 "http://www.w3.org/TR/2001/REC-SVG-20010904/DTD/svg10.dtd">
<svg version="1.0" xmlns="http://www.w3.org/2000/svg"
 width="1196.000000pt" height="1196.000000pt" viewBox="0 0 1196.000000 1196.000000"
 preserveAspectRatio="xMidYMid meet">

<g transform="translate(0.000000,1196.000000) scale(0.100000,-0.100000)"
fill="#fff" stroke="none">
<path d="M7434 11585 c-10 -24 12 -42 34 -29 24 16 21 38 -6 42 -13 2 -25 -3
-28 -13z"/>
<path d="M7533 11593 c-18 -6 -17 -53 1 -53 7 0 19 7 26 16 11 12 11 17 -1 28
-8 8 -20 12 -26 9z"/>
<path d="M7733 11570 c-13 -5 -23 -13 -24 -17 -9 -74 -7 -95 11 -113 65 -65
138 45 75 113 -28 30 -30 30 -62 17z m47 -75 c0 -7 -7 -18 -15 -25 -13 -11
-15 -7 -15 25 0 32 2 36 15 25 8 -7 15 -18 15 -25z"/>
<path d="M6608 11509 c-20 -11 -41 -79 -32 -103 5 -14 29 -26 63 -32 28 -5 71
26 71 51 0 40 -21 73 -53 85 -16 5 -30 10 -31 10 -1 0 -9 -5 -18 -11z m62 -64
c0 -7 -7 -18 -15 -25 -24 -20 -38 0 -25 34 9 23 13 26 25 16 8 -7 15 -18 15
-25z"/>
<path d="M7431 11499 c-40 -37 -9 -100 56 -114 28 -6 33 -3 48 25 15 29 15 35
1 65 -24 50 -66 60 -105 24z"/>
<path d="M6735 11500 c-4 -7 -3 -16 3 -22 14 -14 47 -6 47 12 0 18 -40 26 -50
10z"/>
<path d="M7570 11480 c0 -23 35 -28 43 -6 7 18 -1 26 -25 26 -11 0 -18 -7 -18
-20z"/>
<path d="M6856 11454 c-19 -19 -20 -31 -3 -37 20 -7 37 4 37 23 0 27 -16 33
-34 14z"/>
<path d="M6994 11446 c-4 -10 4 -26 21 -43 29 -30 76 -97 100 -144 9 -16 26
-34 38 -39 27 -12 60 -33 67 -42 11 -15 64 -28 110 -28 42 0 51 -4 79 -35 37
-43 40 -60 9 -50 -24 7 -92 22 -141 30 -15 3 -53 12 -85 21 -31 8 -85 17 -119
21 -57 5 -62 8 -65 32 -2 14 -13 30 -24 36 -12 6 -29 17 -38 24 -27 22 -249
10 -306 -16 -56 -26 -120 -86 -120 -112 0 -15 9 -22 38 -27 20 -4 65 -20 99
-35 132 -61 278 -69 313 -17 47 70 57 76 102 66 24 -5 66 -13 93 -18 91 -15
310 -77 332 -93 24 -17 2 -26 -62 -26 -52 1 -70 -4 -101 -25 -26 -17 -40 -22
-45 -14 -12 19 -41 1 -34 -22 4 -12 0 -26 -9 -36 -32 -31 -10 -62 57 -84 20
-6 43 -17 50 -24 23 -23 116 -47 155 -40 40 8 142 87 142 111 0 7 7 24 16 37
14 22 21 24 75 20 76 -4 125 -18 169 -46 46 -29 122 -67 135 -68 6 0 26 -14
44 -30 26 -24 36 -28 47 -19 20 16 17 36 -6 49 -10 6 -37 41 -59 78 -22 37
-51 82 -65 101 -14 19 -28 55 -32 80 -6 42 -44 110 -92 167 -48 57 -191 124
-263 124 -59 0 -59 -25 -2 -104 26 -37 63 -90 81 -119 56 -90 165 -166 218
-153 17 5 26 -2 43 -30 12 -19 21 -37 21 -40 0 -9 -23 -3 -73 19 -29 13 -90
39 -137 57 -47 18 -109 44 -139 57 -30 13 -67 27 -83 30 -18 3 -34 16 -43 32
-7 15 -28 42 -46 59 -28 27 -32 38 -31 75 3 40 -1 48 -59 110 -34 37 -66 67
-71 67 -4 0 -17 8 -27 17 -32 27 -133 61 -205 68 -56 6 -67 5 -72 -9z m169
-57 c30 -16 30 -15 17 -36 -11 -17 -4 -27 51 -81 52 -50 60 -62 43 -62 -27 0
-114 77 -154 136 -17 23 -30 45 -30 48 0 10 51 6 73 -5z m137 -87 c33 -32 60
-65 60 -73 -1 -12 -3 -12 -13 1 -7 8 -38 37 -69 64 -55 46 -70 66 -48 66 5 0
36 -26 70 -58z m513 -115 c45 -30 114 -123 102 -135 -3 -4 -33 22 -65 56 -60
62 -86 75 -96 47 -4 -10 10 -31 39 -58 75 -71 91 -128 19 -70 -30 24 -140 190
-142 215 0 13 97 -24 143 -55z m-900 -13 c9 -3 17 -12 17 -20 0 -14 -39 -20
-107 -15 -34 2 -54 -16 -32 -29 7 -5 46 -12 86 -16 40 -3 73 -10 73 -14 0 -18
-54 -50 -84 -50 -61 1 -268 70 -258 87 13 19 89 61 118 66 34 5 161 -1 187 -9z
m727 -237 c29 -12 32 -16 18 -22 -21 -9 -108 25 -108 42 0 13 29 6 90 -20z
m-125 -41 c19 -13 18 -15 -18 -32 -23 -11 -37 -24 -35 -33 5 -24 35 -25 64 -2
46 36 85 20 52 -20 -29 -35 -70 -51 -118 -47 -52 5 -150 46 -150 62 0 11 84
71 109 78 35 10 78 7 96 -6z"/>
<path d="M6771 11406 c-8 -10 -9 -16 -1 -21 13 -8 30 3 30 21 0 18 -14 18 -29
0z"/>
<path d="M8100 11275 c-10 -12 -10 -19 -2 -27 17 -17 41 -2 35 21 -6 25 -16
26 -33 6z"/>
<path d="M8164 11279 c-3 -6 0 -15 7 -20 29 -18 57 -5 38 18 -14 16 -35 17
-45 2z"/>
<path d="M8103 11189 c-25 -9 -32 -49 -9 -49 18 0 38 25 34 43 -2 11 -9 12
-25 6z"/>
<path d="M5765 11163 c-132 -4 -373 -23 -490 -38 -60 -8 -140 -17 -176 -19
-141 -10 -523 -76 -649 -112 -25 -7 -63 -15 -85 -19 -52 -8 -329 -89 -420
-122 -38 -14 -106 -43 -150 -63 -44 -21 -91 -41 -104 -45 -14 -4 -44 -18 -68
-30 -24 -13 -56 -26 -73 -30 -16 -4 -30 -10 -30 -14 0 -4 -51 -33 -112 -65
-126 -63 -309 -169 -354 -203 -16 -13 -46 -36 -67 -53 -21 -16 -47 -32 -58
-35 -10 -4 -19 -10 -19 -15 0 -4 -24 -24 -52 -43 -29 -19 -66 -50 -83 -67 -16
-18 -57 -53 -89 -78 -33 -25 -75 -63 -95 -85 -19 -21 -48 -45 -65 -54 -17 -9
-40 -25 -52 -37 -11 -12 -32 -31 -47 -43 -15 -13 -27 -33 -27 -46 0 -13 -11
-34 -25 -47 -29 -27 -30 -63 -2 -68 11 -2 25 5 33 17 9 12 23 21 32 21 24 1
54 19 104 65 24 22 67 58 96 80 29 21 52 43 52 47 0 4 3 8 8 8 4 0 34 25 66
55 32 30 77 67 100 82 23 15 64 47 91 72 28 24 77 61 110 82 33 21 67 45 75
53 25 24 257 153 410 227 269 131 447 208 560 243 179 54 216 65 255 71 22 4
81 18 131 31 98 26 289 62 394 74 36 5 76 11 90 14 14 3 97 13 185 21 88 8
169 17 180 19 113 23 615 38 859 26 l99 -5 18 30 c24 42 23 51 -8 63 -56 22
-360 41 -548 35z"/>
<path d="M8171 11141 c-35 -35 -28 -74 21 -115 48 -41 49 -41 93 -20 78 37 42
138 -53 151 -32 4 -44 1 -61 -16z m94 -36 c14 -13 25 -28 25 -33 0 -18 -29
-33 -57 -30 -22 2 -29 9 -31 31 -3 28 12 57 30 57 5 0 20 -11 33 -25z"/>
<path d="M7040 11005 c-9 -11 -10 -19 -3 -26 14 -14 56 7 50 24 -6 19 -32 20
-47 2z"/>
<path d="M7246 10982 c-2 -4 -1 -14 3 -20 10 -16 41 -5 41 14 0 15 -35 20 -44
6z"/>
<path d="M7152 10963 c5 -25 28 -28 28 -4 0 12 -6 21 -16 21 -9 0 -14 -7 -12
-17z"/>
<path d="M8476 10853 c-4 -9 -4 -36 0 -60 5 -36 10 -43 29 -43 41 0 55 11 55
41 0 60 -66 109 -84 62z"/>
<path d="M8306 10788 c-3 -13 -1 -27 4 -32 6 -6 10 -19 10 -30 0 -11 4 -33 9
-50 5 -17 17 -65 26 -106 24 -104 66 -181 115 -209 21 -11 45 -18 54 -15 12 5
18 -2 22 -25 4 -17 11 -34 15 -37 5 -3 9 -12 9 -20 0 -12 -5 -11 -27 3 -16 10
-30 20 -33 24 -3 4 -27 17 -55 29 -27 12 -57 28 -65 35 -8 6 -51 27 -94 45
-44 18 -96 42 -115 55 -20 12 -46 25 -58 29 -13 4 -23 15 -23 24 -1 38 -61 79
-192 131 -63 26 -90 31 -158 31 -84 0 -140 -18 -140 -44 0 -18 22 -26 67 -26
27 0 34 -3 29 -15 -3 -8 -1 -15 4 -15 5 0 48 -29 95 -65 47 -36 102 -72 123
-80 38 -15 137 -16 159 -2 19 12 83 -9 137 -45 27 -18 68 -45 90 -60 23 -15
36 -28 31 -28 -6 0 -19 6 -30 13 -77 52 -181 59 -300 22 -44 -14 -88 -25 -97
-25 -26 0 -22 -29 5 -39 12 -5 48 -20 81 -33 43 -17 72 -38 110 -79 28 -30 59
-59 70 -62 15 -6 16 -10 6 -22 -8 -9 -9 -28 -5 -54 8 -46 26 -56 85 -46 35 6
40 10 40 35 0 31 -13 45 -53 55 -15 4 -27 11 -27 15 0 5 21 21 48 38 26 16 66
49 89 73 l42 43 48 -16 c26 -9 62 -19 78 -23 17 -3 37 -14 45 -24 8 -9 61 -48
118 -85 69 -46 102 -75 102 -87 0 -23 -4 -23 -38 -5 -15 8 -52 18 -82 24 -47
8 -71 6 -160 -15 -137 -33 -130 -30 -130 -45 1 -33 16 -40 48 -24 45 23 62 20
68 -11 11 -56 136 -123 228 -123 76 0 106 10 122 42 18 34 23 33 131 -17 71
-33 114 -70 218 -188 51 -58 86 -72 113 -45 18 18 15 23 -30 54 -51 34 -99 83
-140 142 -16 23 -33 42 -37 42 -4 0 -27 39 -51 86 -40 83 -42 88 -30 125 8 23
11 60 7 94 -6 62 -39 115 -121 195 -36 35 -46 51 -46 77 0 18 -4 33 -9 33 -5
0 -13 9 -16 20 -17 54 -43 2 -56 -115 -14 -115 16 -274 53 -288 7 -2 10 -8 6
-12 -17 -18 -187 163 -227 244 l-23 43 37 34 c31 28 36 38 31 61 -17 71 -47
107 -142 173 -107 73 -147 116 -163 178 -13 47 -44 59 -55 20z m-382 -207 c53
-29 79 -61 32 -40 -23 11 -29 9 -49 -9 -13 -12 -27 -22 -32 -22 -4 0 -28 21
-52 47 -33 34 -41 48 -31 54 20 13 77 0 132 -30z m561 -15 c96 -75 125 -112
119 -153 -1 -7 -2 -17 -3 -22 0 -5 -10 -11 -21 -14 -16 -4 -21 3 -31 52 -15
69 -36 98 -57 78 -11 -12 -11 -19 2 -50 16 -40 8 -54 -24 -37 -22 12 -40 50
-59 123 -18 76 -2 81 74 23z m-485 -102 c0 -2 -9 -4 -20 -4 -11 0 -20 4 -20 9
0 5 9 7 20 4 11 -3 20 -7 20 -9z m219 -155 c36 -13 40 -26 9 -31 -28 -4 -36
-37 -13 -54 14 -11 22 -10 41 3 30 19 77 10 72 -15 -5 -25 -48 -43 -90 -37
-36 5 -104 38 -160 77 -16 11 -33 16 -39 12 -7 -4 -10 -1 -7 7 6 18 83 48 124
48 17 1 45 -4 63 -10z m681 -42 c80 -92 103 -133 95 -164 -7 -27 -8 -27 -30
23 -37 81 -79 83 -50 2 27 -73 29 -82 16 -74 -12 8 -54 67 -78 111 -13 23 -26
133 -17 147 9 15 18 8 64 -45z m-652 -256 c3 -8 -1 -12 -9 -9 -7 2 -15 10 -17
17 -3 8 1 12 9 9 7 -2 15 -10 17 -17z m662 -15 c6 -8 24 -16 38 -18 21 -2 30
-11 38 -38 14 -43 12 -47 -13 -23 -30 29 -77 63 -85 63 -4 0 -8 7 -8 15 0 19
14 19 30 1z m-177 -45 c8 -8 3 -11 -18 -11 -17 0 -37 -5 -45 -10 -23 -16 6
-30 61 -30 30 0 55 -7 69 -18 l23 -19 -24 -16 c-46 -33 -117 -16 -222 52 -55
37 -64 47 -51 54 45 25 181 24 207 -2z m107 6 c8 -7 24 -23 35 -37 l20 -24
-30 19 c-33 21 -55 40 -55 49 0 10 14 6 30 -7z"/>
<path d="M8217 10734 c-4 -4 -7 -16 -7 -26 0 -14 6 -19 23 -16 14 2 22 10 22
23 0 20 -25 32 -38 19z"/>
<path d="M7115 10704 c-14 -15 -25 -33 -25 -40 0 -24 32 -45 64 -42 29 3 31 6
34 44 3 35 0 42 -23 52 -23 11 -29 9 -50 -14z"/>
<path d="M9066 10698 c-14 -69 -12 -344 3 -398 22 -83 41 -116 77 -134 20 -9
45 -14 58 -10 18 4 28 0 40 -17 9 -13 16 -30 16 -38 0 -9 23 -64 51 -124 28
-59 49 -110 47 -113 -3 -2 -19 3 -37 13 -20 12 -31 26 -31 41 0 12 -4 22 -10
22 -5 0 -10 6 -10 14 0 46 -157 113 -189 81 -12 -12 -8 -25 23 -88 64 -127
109 -159 205 -143 30 4 44 1 65 -15 14 -11 26 -27 26 -35 0 -7 11 -16 24 -20
14 -3 27 -12 30 -21 3 -8 10 -11 16 -8 5 3 10 3 10 -2 0 -4 11 -21 25 -37 14
-16 25 -32 25 -35 0 -3 19 -27 43 -52 87 -94 217 -264 262 -341 15 -27 30 -48
35 -48 4 0 13 -12 19 -27 6 -16 27 -46 45 -68 28 -32 37 -38 47 -27 11 10 11
18 0 45 -19 47 -39 134 -45 200 -4 50 -2 62 19 94 35 50 36 98 5 200 -22 72
-79 168 -120 200 -16 13 -30 37 -34 55 -7 38 -43 68 -52 44 -3 -8 -1 -46 5
-85 6 -38 11 -124 11 -190 0 -158 16 -202 84 -221 l46 -13 0 -53 c0 -29 -4
-56 -10 -59 -5 -3 -22 13 -37 37 -16 24 -46 63 -68 87 -47 50 -63 79 -81 141
-7 25 -21 66 -30 91 -18 45 -17 46 4 74 26 33 27 48 7 126 -17 66 -56 129
-109 176 -20 17 -36 38 -36 47 0 15 -10 20 -27 14 -13 -5 -14 -190 -1 -242 7
-28 13 -55 14 -61 2 -28 30 -66 59 -79 36 -18 45 -33 45 -78 0 -26 -2 -29 -15
-18 -8 7 -15 18 -15 25 0 7 -11 23 -24 36 -24 25 -146 196 -146 205 0 3 -11
20 -25 38 -14 18 -25 38 -25 44 0 6 -10 28 -22 49 -13 21 -35 69 -50 107 -21
55 -25 73 -16 89 6 13 9 51 5 97 -5 83 -27 139 -71 179 -14 14 -26 30 -26 37
0 7 -6 17 -14 21 -18 11 -56 100 -56 133 0 27 -26 60 -48 60 -6 0 -14 -10 -16
-22z m109 -235 c55 -66 75 -110 74 -163 l-1 -45 -29 60 c-31 63 -61 80 -67 38
-2 -13 1 -23 7 -23 6 0 11 -8 11 -17 0 -10 7 -31 15 -47 9 -16 13 -31 11 -33
-10 -10 -47 10 -58 30 -14 27 -24 247 -11 247 5 0 26 -21 48 -47z m35 -492
c34 -29 34 -51 0 -51 -37 0 -29 -18 21 -45 58 -31 58 -41 2 -26 -44 12 -69 37
-96 95 -15 32 -16 41 -5 47 23 15 45 10 78 -20z m395 -54 c23 -36 50 -141 40
-157 -11 -18 -23 -2 -30 41 -8 47 -31 48 -27 0 3 -41 -12 -40 -32 3 -16 34
-22 127 -9 139 15 15 39 4 58 -26z m235 -236 c-6 -13 -2 -39 15 -90 25 -72 32
-131 18 -131 -19 1 -32 18 -42 55 -12 43 -15 178 -5 188 13 13 24 -5 14 -22z
m77 -124 c24 -56 25 -87 3 -87 -5 0 -10 11 -10 25 0 13 -9 47 -20 75 -21 54
-29 120 -8 70 6 -14 21 -51 35 -83z"/>
<path d="M8092 10658 c-18 -18 -14 -38 7 -38 20 0 35 25 25 41 -7 12 -18 11
-32 -3z"/>
<path d="M7300 10580 c-15 -15 -20 -33 -20 -69 0 -45 3 -51 29 -64 26 -13 33
-13 70 4 25 11 45 28 51 44 14 37 14 37 -21 73 -37 38 -79 42 -109 12z m85
-55 c0 -24 -5 -31 -24 -33 -31 -5 -44 10 -35 42 5 22 11 27 33 24 22 -2 26 -8
26 -33z"/>
<path d="M8710 10580 c0 -21 8 -24 34 -14 13 5 14 9 5 20 -17 21 -39 17 -39
-6z"/>
<path d="M8233 10575 c-5 -14 21 -44 38 -45 17 -1 19 35 3 47 -23 17 -33 16
-41 -2z"/>
<path d="M6640 10541 c-14 -27 -13 -38 8 -59 38 -38 36 -264 -5 -386 -16 -51
-65 -145 -95 -187 -10 -13 -32 -45 -49 -72 -45 -68 -252 -262 -324 -301 -58
-33 -204 -96 -255 -111 -101 -29 -299 -149 -358 -217 -12 -15 -31 -30 -42 -33
-10 -3 -21 -14 -25 -23 -3 -9 -22 -35 -43 -57 -34 -37 -61 -71 -87 -114 -95
-155 -115 -189 -115 -196 0 -5 -12 -23 -26 -42 -14 -19 -39 -64 -55 -101 -17
-37 -41 -89 -53 -117 -55 -118 -76 -168 -76 -182 0 -8 -7 -28 -16 -45 -9 -18
-45 -114 -79 -215 -35 -102 -65 -187 -68 -190 -3 -3 -59 -6 -124 -8 -65 -2
-190 -8 -278 -15 -88 -6 -365 -12 -615 -13 -399 -2 -455 0 -453 13 8 54 25
115 42 147 20 41 51 162 51 203 0 14 6 45 13 70 31 108 -2 444 -58 580 -83
200 -215 374 -400 526 -110 89 -433 229 -555 240 -25 2 -56 7 -70 10 -14 4
-36 9 -50 13 -46 11 -324 6 -405 -8 -80 -13 -124 -26 -200 -61 -22 -10 -58
-24 -80 -31 -22 -6 -72 -27 -111 -45 -39 -19 -77 -34 -85 -34 -8 0 -33 -13
-55 -29 -21 -16 -50 -32 -64 -35 -48 -13 -189 -89 -222 -120 -58 -53 -137
-116 -147 -116 -11 0 -81 -83 -81 -96 0 -5 -29 -39 -65 -74 -36 -35 -65 -68
-65 -72 0 -5 -15 -25 -32 -44 -56 -61 -104 -136 -152 -232 -25 -52 -46 -97
-46 -101 0 -4 -22 -60 -50 -124 -27 -64 -50 -121 -50 -127 0 -6 -4 -18 -9 -28
-5 -9 -19 -44 -31 -77 -12 -33 -30 -80 -40 -105 -33 -81 -62 -174 -70 -225 -5
-27 -16 -86 -24 -130 -31 -155 -35 -181 -46 -296 -10 -105 -6 -472 6 -508 2
-8 11 -66 19 -130 17 -133 61 -373 81 -445 8 -27 12 -52 9 -56 -3 -4 2 -11 11
-14 10 -4 15 -16 13 -33 -2 -28 4 -53 22 -85 5 -10 9 -27 9 -37 0 -11 5 -23
10 -26 6 -3 10 -15 10 -25 0 -11 13 -48 29 -82 15 -35 31 -73 35 -85 4 -13 12
-23 17 -23 5 0 9 -6 9 -14 0 -7 9 -25 20 -39 11 -14 20 -34 20 -45 0 -11 11
-34 25 -50 14 -17 25 -34 25 -40 0 -5 7 -15 15 -22 8 -7 15 -21 15 -32 0 -10
7 -21 15 -24 8 -4 15 -11 15 -17 0 -6 27 -41 60 -78 33 -37 60 -72 60 -78 0
-6 4 -11 8 -11 5 0 40 -36 79 -80 63 -72 72 -87 82 -143 7 -34 18 -82 26 -107
7 -25 17 -65 20 -90 4 -25 11 -49 15 -55 4 -5 11 -26 15 -45 9 -48 49 -192 92
-328 30 -97 38 -113 59 -118 43 -11 84 49 55 82 -7 8 -37 100 -89 279 -11 39
-23 86 -25 105 -3 19 -12 54 -21 78 -8 24 -18 65 -22 93 l-7 50 34 -23 c19
-13 45 -33 57 -44 13 -12 41 -29 62 -39 22 -10 40 -22 40 -27 0 -4 5 -8 11 -8
6 0 25 -10 42 -23 42 -29 65 -43 102 -62 17 -8 45 -24 62 -35 77 -46 233 -120
255 -120 8 0 18 -4 23 -8 6 -5 39 -17 75 -27 36 -10 70 -22 77 -27 10 -8 76
-22 238 -49 33 -5 69 -14 80 -18 65 -28 97 -32 284 -36 230 -5 337 7 656 75
28 5 77 15 110 21 53 9 104 30 255 102 25 12 70 38 100 58 85 55 220 146 267
179 62 45 256 240 281 283 12 20 26 43 32 50 43 52 60 76 60 82 0 3 11 21 24
38 27 37 143 274 152 315 4 15 13 36 21 47 7 11 18 38 24 60 6 22 14 42 18 45
7 5 30 78 71 225 48 172 62 222 76 278 15 61 31 116 94 317 22 69 53 172 71
230 17 58 46 150 64 205 18 55 35 116 39 135 4 19 11 44 16 55 5 11 18 55 29
97 11 42 25 86 31 97 6 12 16 49 23 83 l13 63 80 -1 c169 -3 412 -22 436 -35
13 -7 16 -21 13 -76 -7 -119 -18 -1188 -16 -1478 3 -392 19 -842 36 -960 7
-54 11 -103 8 -108 -2 -4 0 -13 5 -20 9 -12 21 -56 27 -100 1 -12 12 -49 24
-82 26 -75 27 -117 1 -140 -11 -10 -22 -27 -26 -39 -9 -30 -113 -239 -125
-251 -5 -5 -9 -19 -9 -31 0 -12 -9 -33 -20 -47 -11 -14 -20 -30 -20 -36 0 -6
-4 -19 -9 -29 -39 -77 -45 -101 -78 -312 -3 -19 -9 -43 -14 -52 -5 -9 -9 -29
-9 -45 0 -15 -7 -50 -16 -78 -9 -27 -15 -72 -15 -98 1 -27 -3 -86 -9 -133 -9
-72 -8 -87 5 -100 8 -9 15 -23 16 -32 0 -9 6 -57 13 -106 7 -49 11 -100 8
-113 -2 -13 0 -23 6 -23 5 0 16 -24 22 -52 12 -51 97 -258 110 -268 4 -3 26
-34 49 -69 24 -35 51 -71 60 -80 9 -9 39 -43 66 -76 59 -71 138 -145 154 -145
6 0 11 -5 11 -10 0 -6 8 -14 18 -18 9 -4 62 -32 117 -62 110 -60 158 -78 285
-108 143 -34 312 -50 480 -47 144 3 160 5 220 31 63 27 143 68 164 85 72 55
226 231 226 258 0 4 8 19 18 32 33 43 72 152 82 229 21 156 22 178 11 275 -19
171 -39 218 -168 396 -35 48 -63 93 -63 101 0 8 -12 25 -26 39 l-26 24 -18
-22 c-18 -22 -17 -63 1 -63 18 0 69 -105 67 -139 -1 -20 4 -38 13 -45 25 -18
36 -47 53 -135 13 -69 14 -100 6 -170 -6 -47 -15 -90 -21 -95 -5 -6 -9 -19 -9
-30 0 -52 -101 -260 -173 -356 -23 -30 -59 -72 -81 -92 -38 -36 -171 -108
-199 -108 -8 0 -20 -7 -27 -15 -7 -8 -28 -17 -49 -21 -20 -4 -41 -10 -47 -15
-10 -8 -154 -27 -234 -31 -67 -3 -268 40 -327 71 -10 5 -49 24 -88 42 -97 47
-211 162 -289 292 -32 54 -63 113 -69 130 -6 18 -16 46 -23 62 -28 67 -34 90
-51 188 -10 61 -17 162 -17 252 -1 129 3 169 27 280 44 204 122 438 209 630
41 90 42 91 68 67 46 -43 216 -63 323 -38 84 20 200 74 247 115 84 74 153 150
192 208 23 35 45 63 48 63 4 0 17 24 30 53 12 28 44 97 70 152 47 101 140 367
140 402 0 10 6 31 12 45 11 23 21 27 77 33 36 4 75 11 88 16 12 5 53 11 90 14
74 6 163 20 403 61 85 15 200 33 255 40 104 14 211 35 305 61 101 28 165 41
237 48 l72 7 -3 -34 c-28 -248 -28 -246 14 -328 44 -87 100 -158 169 -216 38
-33 68 -63 67 -69 -1 -5 -36 -28 -77 -50 -41 -22 -88 -50 -104 -61 -17 -12
-39 -24 -50 -28 -11 -3 -31 -16 -45 -29 -14 -12 -56 -47 -95 -76 -129 -99
-319 -280 -380 -361 -42 -57 -126 -191 -136 -218 -5 -14 -17 -36 -27 -51 -10
-14 -28 -51 -41 -81 -13 -30 -33 -75 -44 -100 -40 -92 -61 -158 -77 -250 -6
-36 -16 -90 -22 -120 -12 -64 -12 -292 1 -365 5 -27 16 -88 24 -135 9 -47 22
-98 31 -115 9 -16 16 -40 16 -53 0 -33 91 -213 143 -282 198 -263 374 -409
677 -560 167 -84 274 -113 473 -130 219 -19 311 -6 607 82 74 22 165 53 201
69 36 16 69 29 73 29 5 0 28 14 53 30 24 17 47 30 52 30 21 0 194 121 245 171
33 33 63 59 67 59 17 0 140 128 160 166 12 21 37 58 56 82 20 24 54 78 75 120
22 42 53 96 69 120 16 24 29 49 29 56 0 6 4 16 8 22 5 5 16 36 26 69 10 33 22
74 27 92 12 38 18 66 24 111 2 18 7 37 10 42 3 4 6 82 7 172 1 136 -2 168 -16
196 -9 18 -14 37 -11 42 8 13 -75 177 -125 242 -23 32 -51 60 -61 63 -11 4
-19 10 -19 14 0 10 -117 101 -129 101 -5 0 -11 4 -13 8 -7 17 -156 91 -223
110 -94 27 -140 32 -275 33 -121 0 -226 -21 -380 -77 -36 -13 -73 -24 -81 -24
-9 0 -24 -9 -34 -20 -10 -11 -27 -22 -39 -26 -56 -18 -227 -174 -250 -228 -7
-18 -30 -49 -51 -71 -51 -55 -91 -135 -73 -146 20 -13 25 -12 65 28 62 61 127
119 144 129 22 12 82 61 138 110 49 45 127 89 176 100 17 4 35 11 41 16 26 20
262 81 324 83 76 2 210 -11 260 -26 66 -20 176 -80 261 -143 141 -105 233
-269 237 -423 6 -205 -62 -386 -212 -565 -131 -156 -200 -231 -259 -283 -38
-33 -86 -76 -107 -96 -67 -62 -190 -150 -262 -186 -15 -8 -30 -18 -33 -24 -4
-5 -13 -9 -21 -9 -8 0 -37 -11 -66 -25 -28 -13 -67 -27 -87 -31 -20 -3 -45
-12 -56 -18 -62 -37 -318 -62 -461 -46 -52 5 -105 8 -117 5 -13 -4 -81 13
-162 39 -77 26 -148 46 -157 46 -10 0 -18 4 -18 8 0 4 -24 16 -52 26 -139 48
-374 206 -487 328 -77 81 -114 137 -177 268 -69 142 -80 176 -99 289 -15 90
-16 120 -6 244 13 147 37 279 66 357 9 25 23 68 32 95 24 77 141 310 165 330
7 6 28 30 47 55 19 25 66 72 105 105 38 33 95 85 127 115 82 79 315 250 341
250 4 0 33 15 65 34 95 56 166 76 283 83 58 3 113 9 122 14 9 5 43 9 75 9 58
1 101 19 89 38 -3 6 -25 13 -49 17 -23 4 -67 13 -97 21 -30 8 -76 14 -103 14
-61 0 -159 47 -224 106 -50 46 -93 145 -93 215 0 45 28 191 39 199 3 3 15 23
24 45 10 22 27 50 37 63 22 27 40 29 295 36 219 7 508 23 610 35 44 6 125 15
180 21 157 17 174 20 270 42 193 45 279 107 349 253 67 140 58 202 -44 308
-37 37 -71 67 -77 67 -6 0 -16 7 -24 16 -25 30 -153 81 -239 95 -71 11 -272
14 -330 5 -143 -23 -257 -49 -350 -80 -58 -20 -115 -36 -127 -36 -13 0 -23 -4
-23 -9 0 -4 -64 -41 -142 -80 -148 -75 -277 -151 -315 -186 -35 -32 -55 -48
-93 -74 -19 -13 -41 -32 -48 -42 -6 -9 -36 -40 -65 -68 -30 -28 -71 -80 -91
-115 -33 -56 -41 -64 -74 -69 -20 -4 -80 -13 -132 -21 -52 -8 -122 -20 -155
-26 -33 -6 -103 -17 -155 -24 -52 -8 -131 -23 -175 -34 -44 -10 -120 -25 -170
-31 -49 -7 -135 -19 -190 -26 -55 -8 -125 -21 -155 -30 -30 -8 -109 -27 -175
-41 -66 -15 -145 -32 -175 -39 -30 -7 -58 -10 -61 -6 -4 3 0 51 7 106 30 220
32 630 4 835 -46 335 -49 350 -60 365 -4 6 -11 31 -14 57 -4 26 -11 50 -16 53
-4 3 -13 27 -20 55 -7 28 -16 53 -21 56 -5 3 -9 13 -9 22 0 16 -72 138 -99
169 -6 7 -11 15 -11 19 0 22 -211 217 -270 248 -14 8 -71 39 -128 70 -139 75
-219 111 -267 120 -22 4 -71 19 -110 32 -38 14 -101 27 -140 30 -38 3 -80 7
-93 10 l-23 5 5 203 c3 111 8 209 11 217 2 8 9 79 15 159 6 80 13 170 17 200
14 125 2 385 -22 458 -8 25 -27 29 -43 9 -6 -7 -14 -40 -18 -73 -4 -32 -10
-63 -14 -69 -4 -5 -13 -89 -19 -185 -7 -96 -16 -231 -22 -300 -14 -189 -39
-551 -39 -582 l0 -27 -112 5 c-62 3 -140 7 -173 9 -33 2 -95 4 -139 4 l-78 1
6 38 c3 20 7 46 9 57 5 26 67 214 78 237 5 10 29 80 54 155 81 249 88 267 126
349 44 92 135 232 206 315 90 104 275 228 423 284 19 7 87 34 150 60 63 26
131 51 150 57 54 16 220 113 291 170 81 65 195 270 222 398 8 41 15 82 15 90
0 8 3 40 7 70 8 63 -15 194 -37 213 -23 19 -66 89 -79 127 -18 53 -49 67 -69
31z m-4320 -998 c8 -3 40 -8 70 -13 165 -22 416 -112 530 -190 56 -38 180
-154 251 -235 39 -46 81 -112 121 -195 64 -130 65 -134 99 -308 13 -68 8 -275
-9 -352 -6 -25 -16 -72 -22 -105 -7 -32 -16 -66 -21 -75 -4 -8 -22 -46 -40
-83 -17 -37 -45 -81 -61 -98 -25 -25 -37 -29 -84 -29 -31 0 -71 8 -96 19 -24
11 -61 27 -83 37 -139 60 -233 196 -270 391 -18 93 -15 303 5 427 10 64 1 96
-28 96 -25 0 -42 -20 -42 -47 0 -13 -9 -41 -20 -63 -11 -22 -20 -48 -20 -59 0
-12 -17 -58 -39 -103 -67 -145 -66 -141 -65 -303 0 -197 3 -211 60 -300 73
-115 200 -178 394 -196 63 -6 116 -12 118 -13 8 -9 -127 -88 -166 -97 -66 -16
-246 -11 -312 8 -107 31 -240 111 -317 191 -28 29 -58 52 -67 52 -23 0 -31
-26 -16 -58 7 -15 19 -43 27 -62 54 -124 132 -231 190 -260 15 -8 51 -29 78
-46 59 -37 168 -64 257 -64 129 0 365 96 463 189 26 24 60 66 77 92 l29 48
367 0 c434 0 769 8 906 21 54 6 131 10 172 10 78 0 87 -6 65 -48 -5 -9 -21
-57 -36 -107 -15 -49 -33 -99 -40 -110 -7 -11 -19 -42 -28 -70 -8 -27 -25 -75
-36 -105 -12 -30 -28 -77 -35 -105 -8 -27 -28 -87 -44 -133 -17 -45 -38 -113
-47 -150 -9 -37 -26 -89 -39 -117 -13 -27 -28 -72 -35 -100 -6 -27 -18 -66
-26 -85 -7 -19 -28 -82 -45 -140 -72 -244 -91 -306 -99 -325 -5 -11 -23 -63
-41 -115 -70 -205 -110 -315 -128 -354 -10 -23 -35 -75 -55 -116 -19 -41 -55
-115 -78 -165 -36 -78 -120 -196 -180 -254 -56 -54 -244 -171 -412 -257 -135
-69 -239 -107 -334 -123 -32 -6 -92 -18 -133 -27 -95 -21 -312 -24 -395 -6
-33 8 -116 31 -185 53 -69 21 -129 39 -133 39 -5 0 -41 16 -81 35 -40 19 -78
35 -83 35 -11 0 -396 193 -458 230 -22 13 -69 44 -105 69 -160 112 -395 355
-465 481 -61 111 -140 289 -161 365 -44 162 -54 195 -67 227 -13 31 -28 95
-32 138 0 9 -4 20 -7 25 -17 31 -59 278 -89 530 -19 155 -15 601 6 700 9 44
18 94 20 110 9 68 54 249 75 300 5 11 16 45 25 75 90 297 219 557 389 785 104
140 128 168 223 261 101 100 117 112 188 147 22 11 54 30 70 43 51 39 207 113
260 124 112 22 175 27 265 23 52 -3 102 -7 110 -10z m3605 -1857 c158 -55 233
-91 291 -141 7 -5 28 -23 48 -39 163 -132 279 -293 348 -481 38 -101 67 -197
78 -255 5 -25 18 -81 29 -125 11 -44 24 -107 30 -140 15 -81 36 -485 35 -665
0 -160 -20 -300 -41 -300 -8 0 -35 -11 -61 -25 -26 -14 -56 -25 -68 -25 -11 0
-29 -8 -40 -17 -10 -10 -46 -29 -79 -42 -33 -13 -90 -46 -126 -73 -37 -26 -70
-48 -75 -48 -5 0 -31 -18 -59 -40 -27 -22 -84 -66 -125 -97 -41 -31 -117 -99
-168 -151 -67 -68 -96 -92 -104 -84 -28 28 -70 230 -83 402 -7 96 -18 213 -24
260 -28 220 -32 296 -33 687 -2 425 17 1416 27 1433 10 16 99 1 200 -34z
m4295 -1188 c75 -18 193 -77 233 -115 32 -32 37 -43 37 -83 0 -52 -36 -133
-76 -173 -61 -62 -208 -110 -404 -132 -74 -9 -164 -20 -200 -25 -125 -17 -794
-55 -810 -45 -13 8 25 57 117 150 98 98 169 162 196 176 12 7 24 15 27 19 19
28 309 169 430 209 36 12 88 26 115 31 60 11 272 3 335 -12z m-3480 -1114 c0
-8 -5 -24 -11 -36 -6 -11 -12 -34 -14 -52 -4 -43 -42 -179 -67 -241 -35 -86
-59 -139 -69 -155 -5 -8 -15 -30 -24 -48 -18 -41 -86 -109 -167 -169 -34 -25
-71 -54 -82 -64 -49 -46 -164 -77 -181 -49 -3 6 -17 10 -31 10 -32 0 -100 35
-108 55 -6 17 10 56 46 115 32 52 181 250 218 290 18 19 52 55 74 80 92 98
224 198 306 230 19 8 49 22 65 31 38 22 45 23 45 3z"/>
<path d="M7476 10547 c-16 -12 -16 -14 -2 -26 17 -14 36 -7 36 14 0 21 -15 26
-34 12z"/>
<path d="M8923 10533 c-17 -6 -16 -30 0 -36 20 -8 41 9 34 27 -7 16 -13 18
-34 9z"/>
<path d="M7474 10455 c-4 -9 -2 -21 3 -26 14 -14 45 1 41 20 -4 22 -37 26 -44
6z"/>
<path d="M7423 10435 c-3 -9 -3 -18 0 -22 10 -10 37 6 37 22 0 20 -29 20 -37
0z"/>
<path d="M9444 10405 c-6 -15 2 -35 14 -35 4 0 13 4 21 9 12 8 12 12 2 25 -17
20 -30 20 -37 1z"/>
<path d="M8732 10358 c-18 -18 -15 -40 6 -36 9 2 18 13 20 26 4 24 -7 29 -26
10z"/>
<path d="M9400 10341 c0 -26 15 -34 40 -21 31 17 25 40 -10 40 -23 0 -30 -5
-30 -19z"/>
<path d="M9538 10338 c-7 -19 2 -38 17 -38 15 0 28 27 19 41 -8 13 -31 11 -36
-3z"/>
<path d="M9461 10274 c-26 -33 -26 -48 -1 -90 36 -58 114 -59 123 -1 13 88
-73 153 -122 91z m77 -67 c2 -15 -1 -27 -7 -27 -6 0 -11 5 -11 10 0 6 -7 10
-15 10 -8 0 -15 6 -15 13 0 38 44 33 48 -6z"/>
<path d="M10110 10211 c-10 -19 -8 -21 20 -21 25 0 31 4 28 17 -5 26 -35 28
-48 4z"/>
<path d="M10100 10128 c-32 -35 -35 -65 -12 -107 27 -47 61 -60 97 -37 15 10
31 30 36 46 6 15 19 30 30 33 10 3 19 12 19 21 0 18 -25 22 -35 6 -9 -14 -25
-12 -25 3 0 20 -44 57 -68 57 -12 0 -31 -10 -42 -22z m86 -43 c16 -41 -23 -88
-52 -64 -14 12 -19 60 -7 72 12 13 54 7 59 -8z"/>
<path d="M8510 10116 c-35 -43 28 -99 70 -61 27 25 25 48 -7 63 -35 16 -48 15
-63 -2z"/>
<path d="M8123 10089 c-16 -16 -5 -39 18 -39 22 0 25 22 6 39 -10 8 -16 8 -24
0z"/>
<path d="M7902 10068 c-19 -19 -14 -45 14 -73 20 -20 34 -25 62 -23 31 3 37 7
40 29 6 53 -80 103 -116 67z"/>
<path d="M8116 9952 c-9 -15 12 -35 29 -28 14 5 15 9 5 21 -14 17 -26 19 -34
7z"/>
<path d="M8223 9943 c-20 -7 -15 -30 7 -36 15 -4 20 0 20 13 0 22 -9 29 -27
23z"/>
<path d="M8240 9875 c-10 -12 -10 -19 -2 -27 15 -15 48 14 38 31 -10 15 -21
14 -36 -4z"/>
<path d="M10252 9788 c-7 -7 -12 -25 -12 -40 0 -21 6 -29 25 -34 46 -11 70 30
41 69 -15 20 -37 22 -54 5z"/>
<path d="M9093 9634 c-7 -20 17 -37 34 -23 15 13 6 39 -13 39 -8 0 -17 -7 -21
-16z"/>
<path d="M9463 9583 c-21 -7 -15 -33 7 -33 11 0 20 6 20 14 0 18 -11 25 -27
19z"/>
<path d="M9020 9550 c-17 -17 -18 -24 -8 -45 20 -44 66 -44 86 -1 9 20 7 27
-12 45 -28 26 -41 26 -66 1z"/>
<path d="M10181 9537 c-14 -17 3 -41 23 -34 9 4 16 13 16 21 0 19 -26 28 -39
13z"/>
<path d="M9157 9533 c-16 -15 -6 -34 15 -31 29 4 38 38 10 38 -10 0 -22 -3
-25 -7z"/>
<path d="M9282 9498 c-12 -12 -17 -38 -6 -38 16 0 44 23 44 35 0 18 -21 20
-38 3z"/>
<path d="M10042 9482 c-20 -13 -3 -44 22 -40 27 4 36 48 9 48 -10 0 -24 -4
-31 -8z"/>
<path d="M9153 9445 c-37 -26 -26 -95 14 -95 8 0 13 12 13 30 0 26 3 30 29 30
31 0 41 -17 33 -52 -3 -12 -14 -18 -34 -18 -29 0 -30 -1 -16 -22 9 -13 27 -24
41 -26 55 -7 74 89 28 140 -25 26 -80 33 -108 13z"/>
<path d="M10142 9438 c-20 -20 -14 -38 13 -38 26 0 29 7 19 34 -7 19 -16 20
-32 4z"/>
<path d="M9562 9408 c-8 -8 -9 -15 -1 -25 18 -21 41 -16 37 9 -4 26 -19 33
-36 16z"/>
<path d="M10047 9373 c-2 -5 -5 -33 -6 -63 -1 -30 -6 -92 -10 -138 -8 -92 4
-261 19 -276 6 -6 10 -19 10 -30 1 -23 32 -66 48 -66 5 0 15 -7 22 -15 7 -9
19 -14 26 -11 15 6 39 -41 48 -94 3 -19 9 -47 12 -62 8 -34 -11 -38 -20 -5 -9
38 -105 176 -178 259 -37 42 -68 83 -68 91 0 9 -6 22 -13 29 -7 7 -23 29 -35
48 -45 71 -120 133 -192 158 -65 23 -190 8 -190 -22 0 -17 33 -46 52 -46 9 0
18 7 22 15 4 11 20 15 58 15 54 0 74 -9 129 -57 14 -13 34 -30 45 -37 31 -23
12 -26 -31 -6 -42 20 -85 26 -85 11 0 -10 43 -41 80 -57 36 -16 90 -63 90 -79
0 -21 -12 -24 -65 -14 -57 11 -92 46 -136 140 -15 31 -37 62 -48 69 -28 14
-27 8 12 -80 61 -140 72 -152 164 -176 65 -17 95 -18 110 -3 17 17 131 -113
217 -250 16 -25 43 -68 61 -96 17 -27 44 -77 60 -110 15 -33 32 -68 36 -77 15
-30 11 -40 -11 -28 -11 6 -20 15 -20 21 0 13 -57 86 -95 122 -38 35 -99 68
-145 78 -121 25 -146 29 -162 23 -29 -9 -21 -29 16 -42 27 -10 38 -22 47 -50
51 -157 130 -224 234 -202 28 6 61 14 75 16 33 7 101 -51 130 -111 12 -25 26
-45 31 -45 5 0 9 -7 9 -15 0 -11 -10 -9 -46 10 -33 17 -63 25 -98 25 -65 -1
-127 -15 -137 -32 -15 -23 8 -30 73 -22 34 5 72 7 83 6 28 -4 96 -53 89 -64
-4 -6 0 -14 7 -19 10 -6 11 -11 3 -19 -13 -13 -104 18 -122 42 -12 16 -16 17
-43 3 -16 -9 -29 -19 -29 -23 0 -4 33 -24 73 -45 74 -38 115 -45 163 -27 23 9
31 7 51 -11 12 -13 23 -28 23 -34 0 -6 11 -34 25 -61 14 -27 25 -55 25 -61 0
-7 4 -13 10 -13 10 0 32 -71 24 -79 -3 -3 -10 3 -16 13 -26 47 -86 98 -150
131 -61 30 -81 35 -140 35 l-69 0 3 -31 c2 -26 14 -40 68 -78 36 -25 91 -73
122 -106 52 -55 60 -59 100 -59 23 0 50 3 60 8 24 11 88 -76 88 -120 0 -23 5
-34 14 -34 17 0 37 -49 46 -107 7 -53 -4 -56 -21 -6 -14 44 -63 94 -114 119
-40 19 -124 16 -150 -6 -24 -20 -7 -28 60 -31 33 -1 72 -8 86 -15 32 -16 79
-70 79 -90 0 -18 -16 -18 -23 0 -3 8 -14 19 -25 25 -18 9 -19 7 -16 -31 1 -22
7 -45 13 -51 13 -13 15 -37 4 -37 -32 2 -93 108 -93 162 0 21 -10 23 -33 5
-16 -11 -16 -15 -1 -62 35 -102 56 -128 119 -149 55 -18 58 -21 89 -86 18 -37
36 -81 39 -99 l7 -32 -40 40 c-49 49 -94 74 -120 66 -19 -6 -29 -35 -12 -35 4
0 8 -24 9 -54 4 -113 76 -206 161 -206 15 0 34 -6 40 -12 10 -10 15 -10 21 1
11 17 31 6 31 -18 0 -10 10 -43 21 -72 12 -30 30 -76 41 -104 73 -185 200
-366 266 -378 39 -8 45 15 10 34 -42 22 -55 47 -61 116 -6 60 -5 70 13 83 42
32 50 125 23 275 -8 50 -16 114 -17 144 -1 32 -7 56 -14 59 -7 2 -12 16 -12
30 l-1 27 -17 -30 c-9 -16 -33 -82 -54 -145 -31 -95 -37 -130 -38 -201 0 -75
3 -89 24 -118 13 -18 32 -38 41 -45 12 -8 15 -23 13 -51 -3 -39 -5 -37 -67 90
-94 195 -98 204 -115 281 -17 77 -20 134 -10 208 6 41 12 51 44 72 67 44 89
176 65 379 -7 61 -8 92 -6 180 3 149 -1 164 -30 111 -10 -20 -19 -40 -19 -45
0 -6 -25 -65 -56 -131 -33 -74 -61 -153 -71 -202 -14 -69 -18 -78 -29 -63 -16
22 -24 106 -27 270 l-2 130 34 5 c22 3 41 15 55 33 19 25 21 42 20 140 0 70
-7 135 -17 172 -10 39 -16 91 -14 143 2 78 1 82 -19 82 -28 0 -39 -15 -53 -73
-6 -26 -34 -87 -61 -134 -51 -89 -55 -104 -51 -185 2 -27 -2 -48 -7 -48 -13 0
-32 55 -32 95 0 18 -5 46 -11 62 -8 23 -6 45 5 90 19 72 101 253 115 253 15 0
59 49 88 98 23 38 25 50 20 120 -3 42 -9 95 -15 117 -14 61 -70 172 -90 177
-28 8 -39 -1 -34 -28 5 -29 -24 -165 -44 -205 -23 -46 -44 -113 -44 -142 0
-28 21 -74 48 -109 12 -14 11 -22 -7 -55 -27 -52 -71 -165 -72 -189 0 -10 -6
-35 -14 -54 -11 -31 -14 -33 -20 -15 -4 11 -19 45 -32 75 -39 87 -41 92 -57
156 -22 92 -23 150 -2 173 14 15 17 34 15 83 -2 34 0 62 4 61 11 -4 20 -6 42
-7 16 -1 21 -10 25 -46 3 -25 9 -50 12 -56 9 -13 17 -78 22 -167 4 -73 8 -83
27 -72 17 11 6 154 -26 308 -20 98 -23 132 -14 143 45 54 23 179 -51 288 -27
39 -56 91 -66 116 -23 61 -30 67 -53 46 -17 -16 -18 -20 -5 -44 10 -20 13 -66
13 -174 -1 -140 -2 -147 -22 -150 -12 -2 -23 -13 -27 -29 -6 -22 -19 -122 -20
-156 0 -20 -20 -15 -20 5 0 10 -8 45 -19 78 -39 124 -40 138 -14 168 19 23 23
38 23 100 0 39 -4 76 -8 82 -5 5 -14 29 -21 53 -11 38 -98 206 -122 237 -5 6
-11 24 -13 40 -8 60 -35 102 -49 77z m72 -262 c26 -53 32 -75 27 -97 -11 -41
-11 -62 -3 -121 5 -32 4 -53 -2 -53 -17 0 -50 68 -60 126 -13 68 -15 214 -3
214 5 0 23 -31 41 -69z m58 -193 c-3 -7 -5 -2 -5 12 0 14 2 19 5 13 2 -7 2
-19 0 -25z m261 -41 c29 -31 50 -93 49 -147 0 -25 -2 -35 -4 -23 -5 27 -28 47
-43 38 -13 -8 -10 -54 4 -74 20 -26 34 -81 24 -88 -13 -7 -28 17 -50 82 -17
52 -25 235 -10 235 5 0 18 -10 30 -23z m-231 -7 c7 -10 10 -27 6 -36 -6 -15
-7 -15 -20 2 -14 19 -18 54 -5 54 4 0 13 -9 19 -20z m524 -236 c17 -36 19 -58
14 -140 -3 -59 -11 -106 -21 -123 -15 -26 -15 -25 -9 19 21 155 1 194 -27 53
-19 -92 -30 -115 -49 -96 -20 20 43 349 64 336 5 -3 18 -25 28 -49z m-366 -25
c5 -14 2 -25 -6 -30 -23 -15 -29 -10 -29 21 0 35 25 41 35 9z m-22 -129 c3
-11 1 -23 -4 -26 -5 -3 -9 6 -9 20 0 31 6 34 13 6z m-276 -11 c27 -12 59 -35
72 -51 26 -32 21 -50 -7 -25 -23 21 -52 22 -52 3 0 -18 38 -46 62 -46 10 0 18
-4 18 -10 0 -5 7 -10 15 -10 31 0 13 -19 -25 -25 -30 -5 -45 -2 -63 11 -27 21
-75 82 -107 137 l-22 37 31 0 c17 0 52 -10 78 -21z m333 -26 c0 -32 -5 -28
-14 10 -4 19 -3 26 4 22 5 -3 10 -18 10 -32z m-46 -78 c3 -8 1 -15 -4 -15 -6
0 -10 7 -10 15 0 8 2 15 4 15 2 0 6 -7 10 -15z m426 -441 c16 -140 13 -179
-12 -209 l-23 -26 3 102 c5 118 -10 127 -28 19 -13 -78 -29 -92 -32 -27 -3 90
21 206 50 240 22 25 29 8 42 -99z m-419 -115 c44 -15 58 -27 41 -38 -12 -7 14
-35 88 -91 20 -15 22 -21 13 -31 -19 -19 -53 3 -182 118 -20 18 -39 33 -43 33
-5 0 -8 5 -8 10 0 13 49 13 91 -1z m283 -118 c2 -8 14 -24 28 -35 24 -20 25
-24 18 -79 -5 -33 -11 -61 -13 -64 -3 -2 -10 29 -17 69 -7 40 -16 78 -20 83
-5 6 -11 28 -14 50 -6 35 -5 37 5 15 6 -14 12 -31 13 -39z m268 -296 c3 -60 1
-70 -14 -73 -13 -3 -18 -13 -18 -40 -1 -75 -24 -192 -38 -192 -15 0 -30 77
-26 130 9 105 65 273 84 254 5 -5 10 -40 12 -79z m-257 -125 c3 -5 1 -10 -4
-10 -6 0 -11 5 -11 10 0 6 2 10 4 10 3 0 8 -4 11 -10z m262 -140 c-4 -24 -14
-51 -23 -60 -15 -14 -16 -13 -11 10 3 14 9 59 13 100 3 41 9 80 13 85 10 17
17 -87 8 -135z m-150 8 c-3 -8 -6 -5 -6 6 -1 11 2 17 5 13 3 -3 4 -12 1 -19z
m48 -172 c-4 -31 -11 -56 -15 -56 -4 0 -8 33 -9 73 -2 66 -1 71 14 56 14 -13
15 -27 10 -73z m-175 3 c21 -22 29 -37 25 -50 -4 -13 3 -30 19 -50 26 -30 27
-49 2 -49 -7 0 -20 8 -29 18 -14 16 -67 136 -67 154 0 16 19 7 50 -23z m436
-281 c20 -70 25 -201 8 -218 -8 -8 -13 -3 -18 20 -3 18 -4 35 -2 39 2 3 -2 12
-10 19 -12 11 -14 7 -14 -23 0 -36 -13 -47 -24 -19 -16 42 12 244 35 244 3 0
15 -28 25 -62z"/>
<path d="M10120 9335 c0 -22 4 -26 23 -23 14 2 22 10 22 23 0 13 -8 21 -22 23
-19 3 -23 -1 -23 -23z"/>
<path d="M10450 9235 c-12 -31 -6 -45 19 -45 28 0 47 28 34 48 -17 28 -42 26
-53 -3z"/>
<path d="M10550 9185 c-10 -12 -10 -19 -2 -27 15 -15 48 14 38 31 -10 15 -21
14 -36 -4z"/>
<path d="M10632 9128 c-7 -7 -12 -20 -12 -31 0 -24 33 -19 38 7 5 24 -11 39
-26 24z"/>
<path d="M10514 9116 c-15 -12 -17 -17 -6 -27 10 -11 15 -10 29 4 24 23 4 43
-23 23z"/>
<path d="M10564 9045 c-24 -36 -12 -108 22 -130 39 -25 80 -12 94 31 13 38 8
61 -21 98 -27 35 -72 35 -95 1z m80 -42 c8 -20 -4 -63 -16 -63 -14 0 -37 31
-38 51 0 36 41 46 54 12z"/>
<path d="M9607 8873 c-14 -13 -6 -33 13 -33 11 0 20 4 20 9 0 13 -26 32 -33
24z"/>
<path d="M9670 8866 c0 -19 32 -30 42 -14 13 21 9 28 -17 28 -15 0 -25 -6 -25
-14z"/>
<path d="M9720 8789 c0 -24 23 -21 28 4 2 10 -3 17 -12 17 -10 0 -16 -9 -16
-21z"/>
<path d="M9593 8766 c-29 -14 -33 -74 -5 -82 34 -11 47 -22 44 -39 -3 -13 1
-16 13 -11 9 3 23 6 30 6 22 0 45 30 45 59 0 35 -47 81 -81 80 -13 -1 -34 -6
-46 -13z m77 -56 c0 -23 -26 -38 -41 -23 -14 14 0 43 22 43 12 0 19 -7 19 -20z"/>
<path d="M10956 8234 c-9 -23 -8 -24 13 -24 19 0 35 23 24 34 -12 11 -31 6
-37 -10z"/>
<path d="M10986 8171 c-12 -14 -14 -21 -6 -26 17 -10 47 22 34 35 -7 7 -16 4
-28 -9z"/>
<path d="M11051 8180 c-17 -10 -7 -40 14 -40 8 0 15 9 15 19 0 24 -12 32 -29
21z"/>
<path d="M10921 8113 c-12 -14 -21 -31 -21 -38 0 -20 31 -76 46 -82 26 -10 59
6 78 38 16 27 17 34 5 56 -27 50 -80 63 -108 26z m72 -39 c9 -10 -4 -34 -19
-34 -8 0 -14 2 -14 4 0 2 -3 11 -6 20 -4 11 0 16 13 16 11 0 22 -3 26 -6z"/>
<path d="M11066 7947 c-37 -27 -1 -76 46 -64 33 9 44 53 17 67 -24 13 -42 12
-63 -3z"/>
<path d="M9913 7868 c-19 -25 -22 -48 -7 -63 31 -31 84 -10 84 34 0 39 -54 58
-77 29z"/>
<path d="M10050 7749 c0 -25 33 -22 38 4 2 12 -3 17 -17 17 -15 0 -21 -6 -21
-21z"/>
<path d="M10136 7721 c-9 -15 23 -36 36 -23 5 5 7 15 4 21 -9 13 -33 14 -40 2z"/>
<path d="M11150 7716 c0 -8 4 -17 9 -20 11 -7 33 18 24 27 -12 12 -33 7 -33
-7z"/>
<path d="M11070 7644 c0 -21 4 -25 23 -22 14 2 23 11 25 26 3 18 -1 22 -22 22
-21 0 -26 -5 -26 -26z"/>
<path d="M10120 7640 c-30 -30 -26 -73 11 -104 37 -31 62 -33 90 -5 27 27 20
75 -17 107 -31 27 -58 28 -84 2z m73 -48 c19 -20 13 -32 -14 -32 -22 0 -33 16
-25 35 7 20 19 19 39 -3z"/>
<path d="M10050 7630 c-9 -17 -8 -20 8 -20 22 0 46 23 35 33 -12 13 -32 7 -43
-13z"/>
<path d="M11173 7634 c-7 -18 14 -35 34 -27 18 7 16 30 -3 37 -22 8 -24 8 -31
-10z"/>
<path d="M11072 7568 c-7 -7 -12 -25 -12 -40 0 -21 6 -29 25 -34 33 -8 55 11
55 46 0 37 -42 54 -68 28z"/>
<path d="M11105 7310 c-4 -7 -3 -16 3 -22 14 -14 47 -6 47 12 0 18 -40 26 -50
10z"/>
<path d="M11205 7300 c-8 -12 20 -24 35 -15 6 3 8 11 5 16 -8 12 -32 12 -40
-1z"/>
<path d="M11090 7237 c-19 -9 -26 -22 -28 -50 -4 -46 26 -76 74 -77 33 0 84
33 84 55 0 7 10 19 22 27 27 18 16 38 -22 38 -16 0 -32 5 -35 10 -9 14 -65 12
-95 -3z m90 -44 c0 -17 -24 -43 -41 -43 -27 0 -37 30 -15 45 15 11 56 10 56
-2z"/>
<path d="M11181 6933 c-11 -21 10 -67 35 -77 9 -4 27 0 40 9 20 13 22 19 13
44 -14 40 -70 56 -88 24z"/>
<path d="M11290 6815 c-10 -13 -9 -15 9 -15 11 0 21 4 21 9 0 18 -18 21 -30 6z"/>
<path d="M11211 6761 c-16 -10 -6 -31 15 -31 8 0 14 9 14 20 0 22 -7 25 -29
11z"/>
<path d="M11290 6709 c-13 -8 -13 -10 0 -19 21 -14 30 -12 30 4 0 20 -13 27
-30 15z"/>
<path d="M10640 6656 c0 -18 30 -30 43 -17 5 5 6 14 3 20 -10 16 -46 13 -46
-3z"/>
<path d="M11235 6641 c-3 -5 -1 -12 5 -16 12 -7 30 2 30 16 0 12 -27 12 -35 0z"/>
<path d="M10722 6618 c7 -20 48 -23 48 -4 0 11 -9 16 -26 16 -16 0 -24 -5 -22
-12z"/>
<path d="M10685 6516 c-19 -14 -19 -15 -2 -21 22 -9 50 2 45 17 -6 18 -22 20
-43 4z"/>
<path d="M10831 6221 c-23 -35 -24 -42 -27 -286 -2 -137 -8 -284 -13 -325 -40
-313 -42 -326 -82 -500 -11 -52 -25 -114 -30 -138 -5 -23 -14 -52 -21 -65 -6
-12 -13 -35 -15 -50 -2 -15 -9 -40 -17 -55 -7 -15 -17 -46 -21 -69 -3 -22 -20
-74 -36 -113 -16 -40 -29 -76 -29 -81 0 -5 -8 -28 -19 -52 -59 -135 -68 -163
-58 -185 6 -12 16 -22 22 -22 7 0 18 -7 25 -15 20 -24 82 -19 99 8 46 71 79
154 73 180 -1 4 5 21 13 37 9 17 20 49 24 73 19 92 74 344 83 382 5 22 16 81
23 130 8 50 17 99 19 110 3 11 8 38 11 60 4 22 9 47 12 55 3 8 7 35 8 60 2 25
8 88 14 140 31 274 37 402 26 605 -4 79 -7 92 -29 110 -13 11 -25 25 -27 31
-2 6 -15 -5 -28 -25z"/>
<path d="M1198 4247 c-42 -33 -13 -60 61 -56 46 3 47 3 56 -31 5 -22 1 -27
-35 -42 -22 -10 -45 -18 -50 -18 -6 0 -10 -11 -10 -25 0 -22 4 -25 34 -25 19
0 37 4 40 8 3 5 52 32 110 61 57 29 107 59 110 67 3 8 -1 26 -10 40 -15 22
-22 24 -103 24 -47 0 -108 3 -136 5 -34 4 -55 1 -67 -8z m252 -41 c0 -10 -71
-47 -80 -41 -20 12 -10 34 18 38 43 6 62 7 62 3z"/>
<path d="M1525 4071 c-6 -4 -23 -13 -40 -19 -203 -72 -202 -70 -141 -204 16
-37 29 -44 60 -32 22 9 20 27 -9 70 -14 20 -25 40 -25 44 0 13 62 46 121 65
58 18 91 47 82 70 -6 17 -34 20 -48 6z"/>
<path d="M1565 3803 c-117 -42 -148 -88 -125 -184 10 -41 31 -69 53 -69 8 0
47 37 47 45 0 4 -9 20 -21 36 -26 37 -23 83 7 87 17 2 28 -7 46 -40 15 -28 30
-43 43 -43 21 0 22 10 9 89 -5 30 -4 38 7 34 24 -8 59 -69 59 -103 0 -20 8
-39 23 -53 20 -19 26 -20 41 -9 17 13 17 16 3 48 -8 19 -25 59 -37 89 -30 73
-49 100 -69 99 -9 0 -47 -12 -86 -26z"/>
<path d="M1794 3542 c-6 -4 -25 -27 -43 -52 l-33 -45 -81 0 c-75 0 -82 -2 -82
-20 0 -18 8 -21 70 -25 l70 -5 -25 -22 c-14 -12 -36 -31 -50 -42 -23 -18 -24
-21 -8 -37 16 -16 19 -16 62 5 25 11 46 26 46 33 0 6 9 21 20 33 20 21 22 21
91 6 68 -14 72 -14 85 4 20 27 2 41 -62 48 -31 3 -58 8 -61 11 -3 3 9 23 26
44 35 45 38 57 15 66 -20 8 -26 7 -40 -2z"/>
<path d="M2015 3310 c-4 -7 -3 -16 3 -22 14 -14 45 -2 40 15 -6 16 -34 21 -43
7z"/>
<path d="M1940 3271 c-14 -5 -47 -22 -74 -40 -28 -17 -62 -31 -77 -31 -28 0
-79 -38 -79 -58 0 -6 8 -16 18 -21 15 -8 41 1 118 40 121 60 149 81 141 103
-7 18 -10 18 -47 7z"/>
<path d="M2030 3117 c-23 -11 -25 -19 -28 -87 -3 -75 -18 -110 -48 -110 -13 0
-19 15 -26 65 -5 29 -41 26 -51 -5 -7 -20 -3 -35 19 -73 33 -54 53 -64 95 -46
40 16 59 56 59 123 0 46 4 57 21 66 30 16 49 5 49 -29 0 -36 22 -46 50 -23 20
17 20 18 3 59 -24 56 -94 86 -143 60z"/>
<path d="M2260 2736 c0 -7 6 -19 14 -25 26 -22 28 -59 5 -90 -12 -16 -18 -34
-15 -40 12 -18 75 -13 98 8 17 16 24 18 39 8 11 -7 19 -17 19 -24 0 -17 17
-25 40 -18 19 6 29 45 12 45 -4 0 -13 9 -20 21 -12 18 -11 23 7 36 23 15 27
38 10 49 -6 3 -29 -2 -51 -12 l-41 -18 -32 37 c-33 38 -85 52 -85 23z"/>
<path d="M2833 2364 c-10 -14 -39 -48 -65 -75 -58 -59 -63 -99 -22 -148 31
-37 88 -51 111 -28 15 14 12 18 -30 38 -50 24 -55 34 -34 63 12 16 14 16 39
-3 56 -45 94 -7 39 39 -28 24 -30 29 -16 40 12 10 21 8 49 -14 38 -28 86 -35
86 -12 0 8 -9 21 -20 29 -11 8 -37 30 -58 49 -55 50 -59 51 -79 22z"/>
<path d="M3033 2163 c-13 -33 -32 -135 -33 -185 0 -22 27 -48 51 -48 29 0 181
149 177 174 -5 33 -45 21 -99 -29 -27 -25 -52 -45 -58 -45 -11 0 4 61 25 102
24 46 18 68 -17 68 -25 0 -32 -6 -46 -37z"/>
<path d="M3275 2048 c-11 -17 -30 -47 -42 -67 -34 -55 -31 -113 8 -151 18 -16
39 -31 48 -31 30 -2 56 3 66 13 13 12 -38 58 -64 58 -18 0 -35 33 -23 44 10
11 47 5 66 -9 22 -17 76 -20 76 -5 0 5 -22 25 -50 42 -51 34 -56 44 -27 62 12
8 24 3 54 -20 21 -17 44 -34 51 -38 14 -8 62 18 62 34 0 21 -151 98 -195 100
-5 0 -19 -14 -30 -32z"/>
<path d="M8610 2047 c-14 -6 -28 -16 -32 -23 -7 -10 -38 -32 -133 -93 -22 -14
-42 -29 -45 -32 -3 -4 -41 -26 -85 -49 -44 -23 -93 -50 -110 -60 -89 -52 -308
-156 -440 -207 -49 -19 -99 -38 -110 -43 -26 -12 -151 -55 -235 -81 -137 -42
-197 -60 -240 -74 -25 -8 -70 -19 -100 -24 -30 -6 -89 -17 -130 -25 -103 -20
-273 -45 -345 -51 -33 -3 -85 -10 -115 -16 -30 -5 -111 -12 -180 -15 -69 -3
-145 -7 -170 -9 -25 -2 -85 -4 -135 -4 -103 -1 -158 -23 -148 -59 4 -16 17
-21 71 -26 151 -16 592 -1 692 24 19 5 98 16 175 25 143 17 306 50 430 87 39
12 79 23 90 25 11 2 29 7 40 12 11 4 49 17 85 29 107 33 352 121 364 131 6 4
25 11 41 15 17 3 89 35 160 71 72 35 159 77 195 94 130 61 252 131 326 186 42
32 89 64 105 72 55 27 76 85 43 117 -18 19 -30 19 -64 3z"/>
<path d="M3536 1915 c-28 -28 -96 -179 -90 -201 6 -23 79 -74 105 -74 18 0 33
26 23 42 -3 5 -17 13 -30 18 -19 7 -24 17 -24 42 0 36 29 99 62 135 12 12 18
29 15 37 -8 20 -41 20 -61 1z"/>
<path d="M3725 1792 c-6 -4 -36 -46 -68 -94 -55 -83 -71 -128 -44 -128 22 0
37 16 80 82 23 36 50 77 61 92 27 38 6 73 -29 48z"/>
<path d="M3820 1668 c-19 -24 -53 -62 -74 -86 -45 -50 -40 -67 18 -56 28 5 44
16 63 45 14 22 29 39 33 39 4 0 11 -30 15 -66 6 -54 10 -67 28 -73 30 -12 39
-5 113 83 72 86 80 119 32 124 -22 3 -31 -4 -51 -35 -13 -21 -27 -48 -31 -61
-11 -34 -29 -22 -42 29 -30 113 -49 124 -104 57z"/>
<path d="M4563 1508 c-18 -24 -23 -49 -13 -69 15 -26 35 -24 48 6 14 31 28 32
38 3 5 -17 -2 -29 -33 -57 -21 -20 -52 -45 -68 -57 -53 -37 -13 -57 135 -67
25 -1 35 2 35 13 0 12 -16 24 -60 44 -5 3 -2 11 7 19 25 20 48 80 41 107 -11
43 -44 70 -84 70 -20 0 -41 -6 -46 -12z"/>
<path d="M4272 1478 c-58 -63 -24 -128 67 -128 42 0 53 4 70 26 27 34 26 57
-1 94 -19 26 -28 30 -68 30 -35 0 -52 -5 -68 -22z"/>
<path d="M4788 1423 c-9 -2 -26 -24 -37 -49 -19 -39 -20 -50 -10 -84 15 -51
38 -71 85 -75 73 -5 134 39 134 98 0 30 -26 93 -42 103 -11 7 -107 12 -130 7z
m100 -89 c2 -19 -4 -39 -15 -53 l-19 -23 -31 26 c-22 18 -30 33 -26 44 11 31
21 38 55 37 29 0 33 -3 36 -31z"/>
<path d="M5055 1407 c-44 -14 -65 -36 -65 -69 0 -22 5 -28 21 -28 11 0 29 10
39 23 14 17 21 19 30 10 16 -15 -10 -49 -67 -86 -23 -16 -43 -32 -43 -35 1
-18 20 -29 70 -40 30 -6 67 -14 83 -18 22 -5 27 -3 27 13 0 21 -29 53 -48 53
-19 0 -14 13 14 35 30 24 45 104 25 129 -16 19 -51 24 -86 13z"/>
<path d="M5205 1381 c-25 -5 -31 -11 -33 -40 -3 -33 -3 -34 30 -28 65 13 73
12 73 -3 0 -9 -12 -17 -30 -20 -24 -4 -30 -10 -30 -30 0 -22 5 -25 38 -28 31
-3 37 -7 37 -26 0 -12 -3 -25 -6 -29 -10 -9 -34 4 -34 19 0 8 -6 14 -13 14
-19 0 -37 -21 -37 -43 0 -51 90 -64 134 -21 29 30 36 84 12 103 -10 8 -12 24
-9 51 5 32 1 43 -20 64 -27 26 -51 30 -112 17z"/>
<path d="M5555 1291 c-49 -12 -75 -34 -85 -71 -14 -51 6 -76 69 -85 53 -7 103
10 115 40 11 28 7 92 -7 103 -18 16 -58 21 -92 13z"/>
</g>
</svg>
