<?xml version="1.0" standalone="no"?>
<!DOCTYPE svg PUBLIC "-//W3C//DTD SVG 20010904//EN"
 "http://www.w3.org/TR/2001/REC-SVG-20010904/DTD/svg10.dtd">
<svg version="1.0" xmlns="http://www.w3.org/2000/svg"
 width="1196.000000pt" height="1600.000000pt" viewBox="0 0 1196.000000 1600.000000"
 preserveAspectRatio="xMidYMid meet">
<metadata>
Created by potrace 1.16, written by Peter Selinger 2001-2019
</metadata>
<g transform="translate(0.000000,1600.000000) scale(0.100000,-0.100000)"
fill="#fff" stroke="none">
<path d="M7733 13590 c-13 -5 -23 -11 -24 -12 0 -2 -3 -24 -5 -50 -4 -38 -1
-51 15 -67 26 -26 55 -27 81 -1 26 26 25 73 -2 110 -23 32 -30 34 -65 20z"/>
<path d="M6608 13529 c-20 -11 -41 -79 -32 -103 11 -29 75 -37 117 -15 37 20
12 102 -36 119 -16 5 -30 10 -31 10 -1 0 -9 -5 -18 -11z"/>
<path d="M6994 13467 c-3 -10 6 -27 24 -45 17 -16 50 -62 73 -102 24 -40 50
-75 59 -79 8 -3 35 -19 59 -36 34 -23 57 -30 107 -33 58 -4 67 -8 94 -39 36
-41 39 -58 8 -48 -45 13 -94 24 -128 28 -19 3 -73 14 -120 26 -47 11 -102 21
-122 21 -32 0 -37 3 -40 27 -2 16 -12 32 -24 38 -12 6 -29 17 -38 24 -12 10
-46 12 -138 9 -139 -5 -185 -20 -250 -82 -53 -49 -51 -72 10 -85 27 -5 71 -21
98 -35 118 -59 269 -66 304 -14 47 70 57 76 102 66 24 -5 70 -13 103 -19 33
-5 80 -15 105 -23 110 -34 188 -56 202 -56 17 0 31 -24 21 -34 -4 -3 -35 -6
-70 -6 -54 0 -70 -4 -99 -27 -28 -21 -37 -24 -44 -13 -14 23 -41 4 -34 -25 4
-15 2 -25 -4 -25 -6 0 -14 -9 -17 -21 -7 -21 18 -59 40 -59 6 0 33 -11 61 -24
99 -49 127 -57 169 -50 45 7 145 85 145 113 0 10 9 26 19 38 32 34 167 18 241
-29 46 -29 122 -67 135 -68 6 0 26 -14 44 -30 26 -24 36 -28 47 -19 20 16 17
36 -6 49 -11 6 -32 32 -47 58 -15 26 -44 72 -65 104 -21 32 -40 75 -44 100 -6
39 -44 107 -91 164 -26 32 -130 94 -182 110 -25 8 -63 14 -83 14 -58 0 -58
-26 1 -107 28 -37 64 -91 81 -119 51 -86 160 -160 222 -152 12 2 27 -12 43
-39 29 -48 30 -48 -60 -8 -27 12 -88 37 -135 55 -47 18 -108 44 -136 56 -28
13 -65 27 -83 30 -21 4 -37 16 -46 34 -8 15 -28 41 -45 56 -24 23 -30 37 -30
69 0 47 -22 84 -84 140 -93 84 -165 118 -280 130 -55 6 -67 5 -72 -8z m819
-260 c45 -31 114 -123 102 -136 -4 -3 -33 23 -66 57 -60 63 -90 75 -97 39 -2
-12 4 -20 17 -24 11 -3 23 -13 26 -23 3 -10 12 -21 20 -24 16 -6 49 -65 41
-73 -3 -3 -21 6 -40 21 -39 29 -85 92 -105 143 -7 18 -19 38 -27 44 -8 6 -14
17 -14 24 0 20 85 -9 143 -48z m-900 -13 c35 -11 19 -34 -25 -35 -24 -1 -56
-2 -72 -3 -16 0 -31 -6 -33 -13 -5 -14 17 -20 102 -28 32 -3 62 -8 65 -11 12
-12 -52 -54 -83 -54 -62 1 -269 70 -259 87 13 19 89 61 118 66 34 5 161 -1
187 -9z m602 -277 c16 -13 15 -15 -20 -35 -37 -22 -42 -44 -12 -50 9 -2 29 7
46 19 34 25 62 20 54 -10 -8 -29 -67 -61 -115 -61 -44 0 -158 46 -158 64 0 11
83 71 108 77 33 10 80 7 97 -4z"/>
<path d="M5775 13184 c-170 -8 -393 -26 -497 -39 -62 -8 -140 -17 -173 -20
-187 -16 -522 -73 -655 -111 -25 -7 -63 -15 -85 -19 -52 -8 -329 -89 -420
-122 -38 -14 -107 -43 -152 -64 -46 -22 -86 -39 -90 -39 -3 0 -34 -13 -67 -29
-34 -16 -72 -32 -86 -36 -14 -4 -32 -13 -40 -20 -8 -7 -60 -36 -115 -64 -120
-63 -301 -167 -341 -198 -16 -13 -46 -36 -68 -53 -21 -16 -42 -30 -46 -30 -4
0 -25 -16 -46 -35 -22 -19 -43 -35 -47 -35 -5 0 -36 -26 -70 -58 -34 -32 -82
-74 -107 -93 -24 -19 -60 -51 -79 -72 -19 -21 -48 -45 -65 -54 -17 -9 -40 -25
-52 -37 -11 -12 -32 -31 -47 -43 -15 -13 -27 -33 -27 -46 0 -13 -11 -34 -25
-47 -29 -27 -30 -63 -2 -68 11 -2 25 5 33 17 9 12 23 21 32 21 25 1 54 19 106
67 25 23 66 56 90 74 25 17 47 38 50 45 3 8 9 14 13 14 5 0 35 25 67 55 32 30
77 67 100 82 23 15 63 47 89 70 54 47 162 123 176 123 5 0 11 7 14 15 4 8 32
28 64 45 32 16 103 55 158 85 215 118 583 288 725 334 78 25 198 58 260 72 25
6 99 23 165 39 190 46 315 66 585 95 80 8 172 19 205 25 172 28 635 43 899 30
l99 -5 18 30 c24 42 23 51 -8 63 -53 21 -386 43 -538 36z"/>
<path d="M8173 13160 c-37 -34 -30 -72 19 -114 48 -41 49 -41 93 -20 77 36 42
138 -52 151 -30 4 -43 0 -60 -17z"/>
<path d="M8307 12808 c-4 -12 -2 -27 2 -32 5 -6 11 -24 14 -41 3 -16 10 -53
16 -80 35 -186 102 -293 179 -287 18 1 24 -5 29 -28 3 -17 10 -33 14 -36 5 -3
9 -12 9 -20 0 -12 -5 -11 -27 3 -16 10 -30 20 -33 24 -3 3 -30 18 -60 33 -30
14 -73 36 -95 49 -22 12 -60 29 -84 37 -24 8 -53 21 -65 30 -11 9 -40 25 -63
35 -24 11 -43 26 -43 34 -1 37 -62 79 -192 130 -63 26 -90 31 -158 31 -84 0
-140 -18 -140 -44 0 -17 22 -26 66 -26 26 0 32 -3 28 -15 -4 -8 -1 -15 5 -15
6 0 49 -29 95 -65 109 -83 142 -97 218 -90 33 2 63 7 68 10 17 10 84 -14 134
-47 27 -18 68 -45 90 -60 53 -36 44 -35 -37 2 -84 38 -152 39 -262 5 -44 -14
-88 -25 -98 -25 -34 0 -14 -34 28 -48 80 -26 123 -52 170 -104 26 -29 56 -56
67 -61 16 -6 18 -10 8 -22 -8 -9 -9 -28 -5 -55 8 -46 34 -59 88 -43 56 16 47
75 -14 88 -39 9 -37 19 14 48 23 14 62 46 87 71 41 43 81 59 94 38 3 -5 30
-14 60 -21 31 -7 62 -20 68 -29 7 -9 59 -48 116 -86 68 -46 102 -75 102 -87 0
-22 -9 -24 -35 -5 -43 29 -162 35 -236 11 -25 -9 -65 -19 -90 -23 -44 -8 -57
-24 -40 -50 7 -12 14 -11 39 2 43 22 61 20 68 -9 15 -59 135 -125 229 -125 75
0 105 10 121 42 18 34 23 33 130 -17 72 -33 110 -66 214 -183 56 -63 90 -78
118 -50 18 18 15 23 -30 54 -51 34 -99 83 -140 142 -16 23 -33 42 -37 42 -4 0
-27 39 -51 86 -40 83 -42 88 -30 125 18 53 7 141 -22 181 -12 18 -50 63 -84
99 -51 55 -61 70 -57 92 3 16 1 27 -5 27 -6 0 -14 9 -17 20 -29 91 -76 -132
-55 -260 12 -74 27 -117 48 -142 9 -10 10 -18 4 -18 -6 0 -12 3 -14 8 -1 4
-29 29 -60 56 -32 27 -58 54 -58 60 0 6 -15 27 -34 46 -18 19 -43 55 -55 79
l-23 43 36 33 c43 39 44 52 11 119 -22 43 -41 61 -121 116 -107 73 -146 115
-164 178 -15 47 -44 58 -53 20z m177 -222 c22 -17 53 -42 69 -56 54 -46 69
-122 27 -133 -16 -4 -21 4 -31 52 -15 69 -36 98 -57 78 -11 -12 -11 -19 2 -50
18 -43 6 -56 -29 -33 -23 15 -46 71 -61 153 -6 34 -6 35 17 28 13 -4 42 -22
63 -39z m-265 -257 c36 -13 40 -26 9 -31 -29 -4 -37 -43 -11 -56 13 -7 24 -6
38 4 44 32 97 2 61 -34 -38 -38 -133 -14 -238 60 -16 11 -32 16 -38 13 -5 -3
-10 -2 -10 3 0 9 37 30 80 45 26 9 76 7 109 -4z m678 -39 c52 -57 103 -134
103 -155 0 -33 -22 -23 -39 18 -33 76 -74 72 -46 -5 27 -73 29 -82 16 -74 -12
8 -55 69 -80 114 -13 24 -24 129 -15 144 9 13 14 10 61 -42z m-162 -318 c18
-10 16 -11 -15 -12 -19 0 -42 -5 -50 -10 -23 -15 5 -30 58 -30 74 0 108 -35
61 -61 -42 -22 -116 -2 -200 54 -87 57 -87 64 5 76 56 7 111 1 141 -17z"/>
<path d="M9065 12721 c-3 -11 -5 -39 -5 -63 1 -24 -2 -79 -6 -123 -7 -86 5
-189 32 -271 12 -40 24 -54 55 -72 25 -14 47 -21 60 -17 25 8 45 -8 54 -43 3
-15 29 -76 57 -135 28 -59 48 -110 45 -113 -12 -12 -59 32 -77 72 -25 55 -74
91 -136 103 -38 8 -52 7 -63 -4 -12 -12 -8 -25 24 -89 63 -125 109 -158 204
-142 30 4 44 1 65 -15 14 -11 26 -27 26 -35 0 -7 11 -16 24 -20 14 -3 27 -12
30 -21 3 -8 10 -11 16 -8 5 3 10 3 10 -2 0 -4 11 -21 25 -37 14 -16 25 -32 25
-35 0 -3 19 -27 43 -52 87 -94 237 -288 237 -307 0 -7 4 -12 8 -12 5 0 16 -16
25 -35 9 -19 21 -35 26 -35 5 0 14 -12 20 -27 19 -45 76 -107 90 -98 14 8 11
27 -13 91 -8 22 -17 63 -20 90 -4 27 -8 66 -11 87 -4 28 0 45 16 66 26 35 38
95 28 136 -30 123 -91 244 -138 272 -11 7 -25 30 -32 51 -13 44 -46 72 -55 48
-3 -8 -1 -46 5 -85 6 -38 11 -124 11 -190 0 -158 16 -202 84 -221 l46 -13 0
-53 c0 -29 -4 -56 -10 -59 -5 -3 -25 18 -44 47 -19 29 -48 67 -66 83 -40 38
-50 58 -90 177 l-33 96 21 27 c26 33 27 48 7 126 -18 68 -62 138 -111 175 -19
15 -34 35 -34 45 0 17 -9 23 -27 17 -16 -6 -14 -192 3 -260 16 -69 53 -128 79
-128 19 0 28 -17 35 -67 7 -42 6 -43 -12 -27 -10 10 -18 23 -18 31 0 7 -4 13
-10 13 -5 0 -10 5 -10 10 0 6 -8 18 -17 28 -32 33 -63 72 -63 78 0 4 -16 29
-35 55 -19 27 -35 52 -35 55 0 3 -11 20 -25 38 -14 18 -25 38 -25 44 0 6 -10
28 -22 49 -13 21 -35 69 -50 107 -21 55 -25 73 -16 89 6 13 9 51 5 96 -5 82
-29 140 -72 181 -14 13 -25 29 -25 36 0 7 -6 17 -14 21 -18 11 -56 100 -56
133 0 27 -26 60 -48 60 -6 0 -13 -9 -17 -19z m111 -237 c54 -67 74 -111 73
-164 l-1 -45 -30 63 c-29 60 -53 78 -64 47 -4 -8 6 -40 20 -71 15 -31 24 -59
21 -62 -2 -3 -16 0 -29 6 -16 7 -27 24 -35 56 -13 53 -15 216 -2 216 5 0 26
-21 47 -46z"/>
<path d="M7300 12600 c-15 -15 -20 -33 -20 -69 0 -44 3 -51 28 -64 50 -24 132
26 132 81 0 4 -14 22 -31 40 -35 38 -78 43 -109 12z"/>
<path d="M6640 12561 c-15 -28 -12 -44 8 -62 36 -30 37 -227 2 -359 -13 -52
-75 -180 -99 -207 -9 -10 -31 -41 -49 -69 -44 -69 -233 -251 -308 -297 -57
-34 -216 -105 -274 -122 -45 -13 -225 -103 -247 -124 -12 -11 -35 -28 -50 -38
-16 -10 -44 -35 -62 -55 -18 -21 -39 -38 -47 -38 -8 0 -14 -4 -14 -10 0 -5
-21 -34 -47 -64 -66 -76 -89 -107 -97 -133 -4 -13 -12 -23 -17 -23 -5 0 -9 -5
-9 -10 0 -6 -18 -39 -40 -74 -22 -35 -40 -66 -40 -70 0 -4 -13 -26 -30 -49
-16 -23 -48 -85 -71 -137 -22 -52 -44 -99 -48 -105 -4 -5 -16 -32 -26 -60 -10
-27 -22 -54 -26 -59 -5 -6 -9 -18 -9 -28 0 -11 -7 -33 -16 -50 -9 -17 -45
-114 -80 -216 -34 -101 -65 -186 -67 -189 -3 -2 -58 -6 -123 -8 -66 -2 -191
-9 -279 -15 -88 -6 -365 -12 -615 -13 -399 -2 -455 0 -453 13 8 54 25 115 42
147 18 35 25 66 61 248 33 167 3 469 -63 620 -46 109 -82 176 -104 200 -10 11
-25 31 -34 45 -33 50 -150 176 -226 241 -127 110 -443 253 -588 265 -27 3 -57
7 -65 11 -32 13 -80 17 -225 17 -205 1 -305 -17 -430 -74 -22 -10 -58 -24 -80
-31 -22 -6 -72 -27 -111 -45 -39 -19 -77 -34 -85 -34 -8 0 -33 -13 -55 -29
-21 -16 -50 -32 -64 -35 -48 -13 -189 -89 -222 -120 -58 -53 -137 -116 -147
-116 -5 0 -21 -15 -35 -32 -15 -18 -31 -38 -36 -45 -6 -7 -10 -16 -10 -20 0
-5 -29 -38 -65 -73 -36 -35 -65 -68 -65 -72 0 -5 -15 -25 -32 -44 -56 -61
-104 -136 -152 -232 -25 -52 -46 -97 -46 -102 0 -4 -20 -54 -45 -111 -25 -57
-45 -108 -45 -112 0 -5 -6 -23 -14 -40 -32 -74 -56 -141 -56 -156 0 -9 -7 -27
-16 -40 -9 -12 -22 -44 -29 -69 -7 -26 -20 -67 -28 -92 -9 -25 -25 -99 -37
-165 -12 -66 -26 -140 -30 -165 -20 -102 -29 -266 -24 -459 3 -113 7 -209 10
-212 2 -4 11 -60 19 -125 18 -135 60 -374 75 -420 6 -17 10 -36 10 -43 0 -7 6
-27 14 -44 8 -18 17 -53 21 -79 3 -26 10 -50 16 -53 5 -4 9 -17 9 -30 0 -13 5
-27 10 -30 6 -3 10 -15 10 -26 0 -10 4 -27 9 -37 15 -27 48 -105 55 -129 4
-13 12 -23 17 -23 5 0 9 -6 9 -14 0 -7 9 -25 20 -39 11 -14 20 -34 20 -45 0
-11 10 -33 23 -49 35 -43 57 -81 57 -98 0 -9 7 -18 15 -21 8 -4 15 -11 15 -16
0 -6 53 -71 118 -145 169 -193 162 -183 177 -265 7 -40 18 -89 23 -108 6 -19
20 -73 32 -120 36 -139 69 -258 107 -378 30 -97 38 -113 59 -118 43 -11 84 49
55 82 -12 14 -107 330 -115 389 -3 17 -12 48 -20 71 -8 23 -18 65 -22 94 l-7
53 33 -24 c18 -13 44 -33 56 -45 13 -11 41 -29 64 -39 22 -10 40 -22 40 -27 0
-4 4 -8 9 -8 5 0 37 -18 70 -40 33 -22 64 -40 69 -40 5 0 20 -8 33 -19 29 -23
234 -126 269 -135 14 -4 34 -11 45 -16 11 -5 45 -16 75 -25 30 -9 64 -21 75
-26 19 -9 120 -30 232 -49 28 -4 78 -18 111 -29 53 -19 88 -22 264 -26 230 -4
338 8 653 75 28 5 77 15 110 21 53 9 104 30 255 102 25 12 70 38 100 58 85 55
221 146 265 179 63 44 260 241 278 277 9 17 22 37 29 45 7 7 22 26 33 42 11
16 27 39 35 51 38 55 81 132 87 155 3 14 16 41 28 60 12 19 32 62 45 95 29 75
47 119 70 170 19 41 42 113 80 250 52 184 62 223 76 278 15 61 29 110 99 332
24 77 56 181 70 230 15 50 40 128 55 175 16 47 36 112 44 145 8 33 22 83 31
110 29 88 64 209 76 254 l10 43 107 -7 c59 -4 114 -7 122 -7 47 1 268 -21 282
-29 13 -7 16 -21 13 -71 -7 -115 -18 -1208 -16 -1488 3 -391 20 -838 36 -955
7 -54 11 -103 8 -108 -2 -4 0 -13 5 -20 9 -12 22 -60 27 -102 2 -11 12 -47 24
-80 27 -75 27 -117 1 -140 -11 -10 -20 -22 -20 -27 0 -12 -119 -251 -131 -263
-5 -5 -9 -19 -9 -31 0 -12 -9 -33 -20 -47 -11 -14 -20 -30 -20 -36 0 -6 -4
-19 -9 -29 -39 -77 -45 -101 -78 -312 -3 -19 -9 -43 -14 -52 -5 -9 -9 -31 -9
-48 0 -17 -6 -45 -13 -63 -8 -18 -15 -68 -16 -112 -1 -43 -4 -82 -6 -86 -9
-14 -15 -139 -6 -139 5 0 11 -6 14 -14 10 -24 29 -178 29 -223 0 -24 3 -43 7
-43 4 0 12 -21 19 -47 14 -53 102 -265 113 -273 3 -3 27 -37 53 -77 26 -40 52
-76 59 -80 6 -4 35 -35 62 -68 66 -78 135 -145 152 -145 7 0 13 -5 13 -10 0
-6 8 -14 18 -17 9 -4 49 -25 87 -48 123 -70 176 -91 315 -124 145 -33 313 -50
480 -46 144 3 160 5 220 31 63 27 143 68 164 85 75 57 199 200 234 269 7 14
24 45 37 70 55 105 83 293 67 449 -18 173 -38 222 -169 402 -35 48 -63 95 -63
105 0 11 -12 28 -27 38 -26 19 -26 19 -44 -3 -19 -24 -16 -44 12 -72 33 -33
61 -100 55 -130 -4 -20 0 -32 13 -41 26 -19 37 -44 55 -131 13 -65 14 -95 6
-170 -6 -51 -15 -96 -20 -101 -6 -6 -10 -19 -10 -30 0 -51 -100 -258 -172
-356 -22 -30 -59 -72 -82 -93 -40 -36 -171 -107 -199 -107 -8 0 -20 -7 -27
-15 -7 -8 -28 -17 -49 -21 -20 -4 -41 -10 -47 -15 -10 -8 -154 -27 -234 -31
-67 -3 -268 40 -327 71 -10 5 -49 24 -88 42 -96 46 -211 162 -289 293 -32 54
-63 112 -69 129 -6 18 -18 51 -28 74 -35 81 -65 272 -68 433 -3 208 103 609
239 898 17 35 30 67 30 72 0 18 20 20 39 3 29 -24 136 -52 203 -53 117 0 291
61 368 130 90 80 155 150 193 208 23 34 44 62 47 62 4 0 16 21 28 48 49 109
62 138 71 152 31 51 141 368 141 407 0 10 6 31 12 45 11 23 21 27 77 33 36 4
75 11 88 16 12 5 53 11 90 14 73 6 160 19 403 61 85 15 209 35 275 44 118 18
212 38 370 78 44 11 112 23 152 27 l72 7 -3 -34 c-28 -248 -28 -246 14 -328
44 -87 100 -158 169 -216 38 -33 68 -63 67 -69 -1 -5 -36 -28 -77 -50 -41 -22
-88 -50 -104 -61 -17 -12 -39 -24 -50 -28 -11 -3 -31 -16 -45 -29 -14 -12 -56
-47 -95 -76 -38 -29 -93 -75 -121 -101 -29 -26 -58 -52 -65 -56 -20 -13 -181
-184 -202 -214 -43 -63 -103 -160 -130 -210 -45 -84 -89 -174 -91 -185 -1 -5
-10 -28 -20 -50 -29 -65 -33 -76 -55 -150 -11 -38 -25 -108 -31 -155 -6 -46
-14 -88 -17 -93 -9 -15 -4 -277 6 -332 5 -27 16 -88 24 -135 9 -47 22 -98 31
-115 9 -16 16 -40 16 -53 0 -34 92 -213 145 -284 203 -271 389 -421 712 -577
135 -66 254 -96 436 -111 205 -17 362 3 587 75 58 19 119 37 135 41 27 7 164
70 270 126 80 41 180 112 239 169 33 33 64 59 68 59 15 0 145 137 163 173 11
21 35 57 54 78 18 22 51 74 73 117 22 42 53 96 69 120 16 24 29 49 29 56 0 6
4 16 8 22 5 5 16 36 26 69 10 33 24 80 32 105 7 25 16 64 18 88 3 23 7 46 11
51 11 19 9 336 -3 357 -6 12 -14 36 -17 53 -14 79 -144 293 -186 306 -11 4
-19 10 -19 14 0 8 -95 84 -132 106 -198 118 -253 135 -459 142 -147 5 -163 4
-260 -21 -57 -15 -133 -38 -169 -52 -36 -13 -71 -24 -78 -24 -8 0 -28 -11 -46
-25 -18 -14 -36 -25 -41 -25 -14 0 -139 -104 -198 -165 -15 -16 -34 -44 -41
-60 -7 -17 -30 -48 -51 -70 -51 -55 -91 -135 -73 -146 20 -13 25 -12 65 29 62
60 127 118 144 128 23 13 83 61 138 111 46 41 161 103 192 103 8 0 20 5 25 10
20 20 259 83 324 85 79 2 199 -10 260 -27 105 -28 310 -162 373 -242 15 -19
27 -37 27 -40 0 -3 10 -21 23 -39 13 -19 35 -68 50 -109 23 -64 26 -86 23
-168 -7 -175 -27 -250 -104 -381 -25 -42 -46 -72 -133 -184 -72 -94 -226 -255
-282 -295 -12 -8 -44 -37 -72 -63 -27 -26 -58 -50 -67 -53 -10 -3 -18 -9 -18
-13 0 -12 -80 -65 -162 -108 -15 -8 -30 -18 -33 -24 -4 -5 -13 -9 -21 -9 -8 0
-37 -11 -66 -25 -28 -13 -67 -27 -87 -31 -20 -3 -45 -12 -56 -18 -47 -29 -280
-58 -395 -50 -30 2 -95 5 -145 8 -87 4 -126 12 -268 62 -38 13 -77 24 -88 24
-10 0 -19 4 -19 8 0 4 -24 16 -52 26 -146 51 -370 202 -488 328 -76 81 -113
138 -176 268 -25 52 -52 108 -59 123 -23 47 -48 188 -49 277 -2 173 27 377 69
490 9 25 23 68 32 95 25 81 137 302 170 335 10 11 31 36 47 57 17 21 61 65 99
98 38 33 96 85 128 115 84 80 315 249 341 250 4 0 33 15 65 34 96 56 166 77
283 83 58 3 113 9 122 14 9 5 43 9 75 9 58 1 101 19 89 38 -3 6 -25 13 -49 17
-23 4 -67 13 -97 21 -30 8 -76 14 -103 14 -64 0 -164 49 -227 111 -62 60 -94
150 -87 242 5 63 25 158 36 167 4 3 15 23 24 45 10 22 27 50 37 63 22 27 40
29 295 36 215 7 493 23 610 36 50 6 133 15 185 20 151 17 170 20 265 42 193
45 279 107 349 253 49 101 54 147 23 215 -23 51 -122 160 -145 160 -5 0 -16 7
-23 16 -18 22 -151 79 -209 90 -64 12 -242 19 -316 12 -122 -10 -276 -43 -394
-82 -58 -20 -115 -36 -127 -36 -13 0 -23 -4 -23 -9 0 -4 -64 -41 -142 -80
-159 -81 -278 -152 -323 -195 -16 -15 -50 -42 -75 -58 -25 -17 -51 -39 -58
-49 -6 -9 -36 -40 -65 -68 -30 -28 -71 -80 -91 -115 -33 -56 -41 -64 -74 -69
-20 -4 -80 -13 -132 -21 -52 -8 -124 -20 -160 -27 -36 -6 -105 -17 -155 -24
-49 -7 -128 -22 -175 -33 -75 -18 -209 -39 -365 -58 -27 -3 -93 -17 -145 -30
-52 -13 -140 -34 -195 -45 -55 -12 -125 -27 -155 -34 -30 -7 -58 -10 -61 -6
-4 3 0 51 8 106 23 169 30 468 16 685 -7 107 -16 202 -20 210 -4 8 -12 62 -19
120 -15 122 -24 171 -34 185 -4 6 -11 31 -14 57 -4 26 -11 50 -16 53 -4 3 -13
27 -20 55 -7 28 -16 53 -21 56 -5 3 -9 13 -9 22 0 16 -72 138 -99 169 -6 7
-11 16 -11 20 -1 23 -210 214 -274 249 -233 129 -334 178 -391 188 -22 4 -71
19 -110 32 -38 14 -101 27 -140 30 -38 3 -80 7 -93 10 l-23 5 5 198 c3 110 8
209 11 222 2 13 10 87 15 164 6 77 13 158 16 180 9 68 8 296 -3 380 -12 91
-20 115 -38 115 -22 0 -34 -25 -41 -86 -4 -32 -10 -64 -15 -69 -4 -6 -15 -118
-23 -250 -9 -132 -23 -328 -30 -435 -8 -107 -18 -243 -22 -302 l-6 -107 -102
5 c-55 3 -135 7 -176 9 -41 2 -108 4 -149 5 l-73 0 5 33 c3 17 8 46 11 62 9
41 66 214 81 245 7 14 22 59 35 100 12 41 30 98 40 125 10 28 28 82 40 120 62
191 235 463 350 548 19 14 44 33 55 41 80 63 107 81 173 112 77 35 376 156
422 169 45 13 217 115 279 165 53 43 104 117 164 236 71 142 101 329 73 458
-8 38 -19 72 -24 75 -16 11 -73 101 -84 134 -17 50 -49 63 -68 28z m-4320
-998 c8 -3 40 -8 70 -13 155 -21 407 -109 522 -183 50 -32 194 -167 256 -239
51 -60 95 -136 177 -308 7 -14 18 -54 24 -90 7 -36 17 -87 23 -113 12 -56 5
-279 -10 -347 -6 -25 -16 -72 -22 -105 -7 -32 -16 -66 -20 -75 -5 -8 -22 -44
-38 -80 -17 -36 -44 -80 -60 -98 -26 -29 -35 -32 -82 -32 -40 0 -77 10 -140
36 -141 60 -204 116 -256 229 -59 127 -74 212 -68 395 2 85 8 181 14 214 10
65 1 96 -29 96 -24 0 -40 -20 -44 -56 -2 -16 -11 -43 -20 -61 -10 -18 -17 -41
-17 -52 0 -11 -17 -58 -39 -103 -67 -145 -66 -141 -65 -303 0 -165 4 -198 25
-236 8 -15 24 -45 36 -67 58 -104 200 -174 397 -195 l118 -12 -62 -43 c-34
-23 -83 -47 -108 -53 -66 -15 -236 -11 -306 7 -107 28 -250 113 -326 194 -45
48 -72 61 -85 40 -6 -9 15 -80 34 -117 5 -10 21 -43 37 -73 36 -72 115 -163
160 -185 19 -9 54 -29 77 -45 89 -59 274 -76 397 -35 98 33 114 39 190 78 82
42 167 118 206 184 l24 42 368 0 c431 0 755 8 902 21 142 13 250 13 250 -1 0
-15 -80 -252 -90 -264 -4 -5 -14 -32 -23 -60 -8 -27 -25 -75 -36 -105 -12 -30
-28 -77 -35 -105 -8 -27 -28 -87 -44 -133 -17 -45 -38 -113 -47 -150 -9 -37
-26 -89 -39 -117 -13 -27 -28 -72 -35 -100 -6 -27 -18 -66 -26 -85 -15 -40
-68 -212 -85 -280 -10 -41 -40 -134 -60 -185 -4 -11 -21 -60 -38 -110 -70
-209 -95 -278 -129 -355 -20 -44 -30 -67 -128 -275 -42 -88 -122 -201 -186
-264 -85 -82 -447 -289 -594 -340 -33 -11 -105 -30 -160 -41 -55 -11 -125 -26
-155 -32 -99 -20 -302 -15 -415 11 -55 13 -104 27 -109 32 -6 5 -19 9 -31 9
-12 0 -25 4 -31 9 -5 4 -36 15 -69 24 -33 9 -87 30 -120 47 -33 16 -65 30 -71
30 -13 0 -392 191 -459 230 -44 26 -156 104 -195 135 -14 11 -74 70 -135 130
-160 159 -235 257 -282 368 -9 20 -20 37 -25 37 -4 0 -8 7 -8 16 0 9 -6 30
-14 47 -54 123 -66 151 -66 160 0 13 -41 150 -76 255 -13 40 -26 88 -28 106
-3 18 -11 60 -19 92 -23 92 -45 223 -68 409 -29 221 -31 652 -4 780 9 44 18
94 20 110 9 69 55 251 76 300 4 11 17 49 28 85 96 319 209 541 418 819 81 109
267 305 312 330 14 7 42 22 61 32 20 9 58 32 85 51 47 31 111 65 197 102 21 9
77 21 125 27 48 6 90 13 92 15 6 5 191 -6 211 -13z m3603 -1857 c178 -62 214
-79 286 -136 110 -86 204 -178 246 -240 16 -25 32 -47 35 -50 27 -25 96 -161
127 -250 42 -116 78 -234 75 -242 -1 -4 11 -60 27 -125 36 -146 40 -177 53
-432 15 -291 17 -447 8 -516 -20 -143 -23 -155 -37 -155 -8 0 -35 -11 -61 -25
-26 -14 -56 -25 -68 -25 -11 0 -29 -8 -40 -17 -10 -10 -46 -29 -79 -42 -33
-13 -90 -46 -126 -73 -37 -26 -71 -48 -78 -48 -6 0 -39 -24 -73 -52 -35 -29
-90 -73 -123 -97 -33 -24 -102 -87 -153 -139 -67 -68 -96 -92 -104 -84 -29 29
-70 229 -83 407 -8 99 -19 216 -25 260 -27 210 -31 293 -32 682 -2 421 17
1416 27 1433 10 16 94 2 198 -34z m4297 -1188 c68 -16 201 -82 238 -117 26
-26 32 -40 32 -74 0 -90 -49 -171 -135 -222 -33 -19 -66 -35 -75 -35 -8 0 -42
-10 -75 -21 -33 -11 -121 -26 -195 -35 -74 -8 -164 -19 -200 -24 -117 -16
-808 -56 -817 -46 -15 15 255 293 317 326 14 7 30 19 38 26 17 18 170 100 202
109 14 4 32 13 40 19 34 28 221 92 320 110 40 7 260 -4 310 -16z m-3485 -1120
c-4 -13 -9 -32 -12 -43 -4 -11 -7 -33 -9 -50 -3 -39 -39 -165 -66 -230 -35
-86 -59 -139 -69 -155 -5 -8 -15 -30 -24 -48 -18 -41 -86 -110 -168 -169 -34
-26 -64 -49 -67 -53 -3 -4 -27 -22 -54 -39 -51 -32 -127 -43 -141 -21 -3 6
-17 10 -31 10 -32 0 -100 35 -108 55 -6 17 10 56 46 115 28 45 180 249 205
275 10 11 43 47 72 79 96 106 234 212 321 246 19 8 49 22 65 31 40 24 47 23
40 -3z"/>
<path d="M9461 12294 c-26 -33 -26 -48 0 -90 14 -24 30 -35 55 -40 47 -9 61
-1 67 38 13 89 -73 154 -122 92z"/>
<path d="M10114 12162 c-19 -13 -44 -56 -44 -76 0 -29 41 -86 68 -92 29 -8 71
20 83 56 6 15 19 30 30 33 10 3 19 12 19 21 0 18 -25 22 -35 6 -9 -15 -25 -12
-25 4 0 18 -47 56 -69 56 -9 0 -21 -4 -27 -8z"/>
<path d="M10049 11398 c-1 -3 -4 -41 -17 -200 -9 -97 3 -267 18 -282 6 -6 10
-19 10 -30 1 -23 32 -66 48 -66 5 0 15 -7 22 -15 7 -9 19 -14 26 -11 16 6 37
-39 53 -112 13 -65 14 -72 2 -72 -5 0 -11 11 -15 24 -9 35 -115 188 -184 266
-34 38 -62 75 -62 84 0 8 -6 21 -13 28 -8 7 -19 24 -26 37 -23 41 -84 102
-140 138 -64 41 -151 54 -215 33 -40 -13 -45 -29 -18 -53 23 -21 48 -22 56 -2
4 11 20 15 56 15 59 0 81 -10 130 -57 19 -18 37 -33 41 -33 4 0 9 -7 12 -14 6
-16 -6 -13 -53 11 -29 15 -70 17 -70 4 0 -10 39 -37 91 -64 46 -23 83 -62 76
-80 -4 -11 -16 -13 -58 -6 -61 10 -94 43 -140 141 -25 52 -51 79 -64 66 -5 -5
53 -140 80 -185 34 -58 187 -107 222 -72 8 8 22 -2 52 -33 42 -45 122 -148
155 -202 11 -17 38 -60 61 -96 23 -36 54 -92 70 -125 15 -33 32 -68 36 -77 15
-30 11 -40 -11 -28 -11 6 -20 15 -20 21 0 14 -58 87 -100 126 -57 52 -167 91
-275 96 -53 3 -60 -24 -11 -41 26 -10 38 -22 47 -50 6 -20 24 -58 38 -85 14
-27 30 -57 36 -68 5 -10 31 -28 58 -39 42 -18 54 -19 100 -10 29 6 63 14 77
16 33 7 101 -50 130 -111 12 -25 26 -45 31 -45 5 0 9 -7 9 -15 0 -11 -10 -9
-46 10 -34 18 -63 25 -103 25 -68 0 -127 -15 -135 -35 -8 -23 11 -28 72 -19
31 5 68 7 82 5 32 -3 102 -50 94 -63 -4 -6 0 -14 7 -19 10 -6 11 -11 3 -19
-13 -13 -104 18 -122 42 -12 16 -16 17 -43 3 -16 -9 -29 -19 -29 -23 0 -4 33
-24 73 -45 74 -38 115 -45 163 -27 23 9 31 7 51 -11 12 -13 23 -28 23 -34 0
-6 11 -34 25 -61 14 -27 25 -55 25 -61 0 -7 4 -13 10 -13 10 0 32 -71 24 -79
-3 -3 -10 3 -17 14 -24 43 -98 106 -158 135 -52 24 -77 30 -132 30 l-68 0 3
-31 c2 -26 14 -40 68 -78 36 -25 91 -73 122 -106 52 -55 60 -59 100 -59 23 0
50 3 60 8 22 10 88 -75 88 -115 0 -15 6 -32 14 -36 18 -11 43 -69 49 -115 7
-49 -8 -49 -24 -1 -14 44 -63 94 -114 119 -40 19 -124 16 -150 -6 -25 -20 -7
-30 56 -30 33 0 73 -7 88 -15 34 -17 81 -70 81 -91 0 -18 -16 -18 -23 0 -3 8
-14 19 -25 25 -18 9 -19 7 -16 -31 1 -22 7 -45 13 -51 13 -13 15 -37 4 -37
-33 1 -93 107 -93 162 0 21 -10 23 -33 5 -17 -11 -16 -16 3 -71 34 -99 54
-124 116 -142 54 -15 56 -17 88 -83 18 -37 36 -82 39 -100 l7 -32 -40 40 c-49
49 -94 74 -120 66 -19 -6 -29 -35 -12 -35 4 0 7 -19 7 -42 -4 -109 77 -218
163 -218 15 0 34 -6 40 -12 10 -10 15 -10 21 1 11 18 31 5 31 -19 0 -11 4 -29
10 -42 5 -13 21 -54 36 -93 55 -145 139 -292 216 -376 36 -40 98 -61 98 -34 0
9 -10 20 -22 26 -38 17 -55 50 -62 121 -6 60 -4 68 13 77 43 23 52 122 24 276
-8 50 -16 114 -17 144 -1 32 -7 56 -14 59 -7 2 -12 16 -12 30 l0 27 -18 -30
c-10 -16 -35 -82 -55 -146 -31 -96 -37 -131 -37 -201 0 -89 10 -114 63 -158
14 -11 18 -26 15 -55 -4 -43 -3 -44 -148 260 -40 83 -58 215 -44 319 6 41 12
51 45 73 30 20 43 37 55 77 20 67 25 190 10 296 -6 47 -10 108 -8 135 1 28 2
57 2 65 0 8 0 41 0 73 1 31 -2 57 -7 57 -9 -1 -43 -65 -43 -83 0 -7 -20 -54
-45 -105 -25 -52 -45 -97 -45 -101 0 -5 -6 -21 -14 -37 -8 -16 -19 -60 -26
-98 -11 -60 -15 -67 -26 -52 -16 23 -24 106 -27 271 l-2 130 32 3 c23 2 39 13
55 35 21 29 23 43 22 142 0 68 -7 133 -17 170 -10 39 -16 91 -14 143 2 78 1
82 -19 82 -28 0 -39 -15 -53 -75 -7 -27 -30 -80 -52 -117 -52 -87 -70 -145
-62 -208 7 -62 -10 -67 -25 -7 -29 118 -32 161 -17 218 18 69 101 249 114 249
15 0 59 49 88 98 23 38 25 50 20 120 -7 103 -18 144 -57 225 -29 58 -37 67
-60 67 -25 0 -27 -3 -24 -37 3 -39 -28 -176 -45 -197 -12 -15 -41 -119 -41
-148 0 -13 7 -33 15 -44 8 -10 15 -25 15 -33 0 -8 7 -19 17 -26 15 -11 14 -15
-5 -51 -28 -53 -72 -166 -73 -190 0 -10 -6 -35 -14 -54 -11 -31 -14 -33 -20
-15 -4 11 -19 45 -33 75 -36 77 -39 87 -56 155 -25 106 -26 142 -5 169 14 18
18 38 17 82 -2 56 1 66 20 63 4 -1 16 -2 27 -3 16 -1 21 -10 25 -46 3 -25 9
-50 13 -57 7 -11 11 -40 22 -172 6 -71 8 -77 26 -66 14 9 6 175 -12 238 -24
87 -37 192 -26 212 35 66 19 185 -35 260 -52 73 -73 109 -88 153 -17 52 -26
59 -50 37 -16 -15 -17 -19 -4 -43 10 -20 13 -67 13 -174 -1 -136 -3 -148 -20
-148 -25 0 -29 -9 -41 -110 -6 -49 -15 -90 -20 -90 -4 0 -8 8 -8 18 0 10 -8
45 -19 78 -39 124 -40 138 -14 168 19 23 23 38 23 97 0 38 -4 77 -9 87 -6 9
-18 42 -27 71 -9 30 -21 60 -26 65 -21 25 -98 171 -98 186 0 26 -29 90 -40 90
-6 0 -10 -1 -11 -2z m70 -264 c32 -67 39 -118 20 -129 -5 -4 -8 -19 -5 -33 15
-77 17 -112 8 -112 -18 0 -51 68 -61 126 -13 70 -14 214 -2 214 5 0 23 -30 40
-66z m319 -237 c28 -30 49 -92 50 -147 l1 -45 -14 33 c-8 17 -19 32 -25 32
-22 0 -22 -33 -2 -83 27 -67 29 -79 16 -84 -6 -2 -21 20 -34 49 -18 41 -24 78
-28 161 -2 63 0 107 5 107 5 0 19 -10 31 -23z m292 -238 c18 -34 20 -52 15
-145 -4 -74 -11 -114 -22 -128 -14 -20 -15 -18 -9 29 14 99 13 135 -1 135 -7
0 -13 -8 -13 -17 0 -47 -34 -173 -47 -173 -8 0 -16 7 -19 15 -12 30 52 339 68
329 5 -3 17 -23 28 -45z m-663 -170 c50 -23 117 -89 90 -89 -8 0 -20 7 -27 15
-16 19 -50 20 -50 1 0 -18 38 -46 62 -46 10 0 18 -4 18 -10 0 -5 7 -10 15 -10
31 0 13 -19 -25 -25 -30 -5 -45 -2 -63 11 -27 21 -75 82 -107 137 l-22 37 31
0 c17 0 52 -10 78 -21z m716 -578 c10 -122 9 -135 -8 -167 -10 -19 -20 -32
-23 -29 -3 2 -4 48 -3 101 3 112 -11 119 -29 14 -13 -78 -29 -92 -32 -27 -4
124 43 280 74 249 5 -5 14 -69 21 -141z m129 -496 c3 -60 1 -70 -14 -73 -11
-2 -18 -13 -19 -25 -2 -94 -20 -199 -34 -204 -17 -5 -33 69 -28 127 8 104 64
273 83 254 5 -5 10 -40 12 -79z m155 -677 c31 -91 39 -226 15 -250 -10 -10
-25 49 -17 62 3 4 -2 10 -10 14 -11 4 -15 -2 -15 -24 0 -37 -17 -39 -26 -4
-13 51 16 234 36 234 3 0 11 -15 17 -32z"/>
<path d="M10564 11064 c-24 -36 -9 -109 27 -131 40 -24 73 -11 88 35 11 33 11
43 -3 70 -29 56 -84 69 -112 26z"/>
<path d="M10987 10192 c-9 -10 -17 -23 -17 -29 0 -6 -7 -10 -16 -9 -9 0 -25
-11 -36 -25 -18 -24 -19 -30 -7 -64 24 -65 79 -72 113 -14 16 27 17 34 5 56
-7 13 -21 29 -32 34 -17 10 -17 11 5 29 16 13 20 22 12 30 -7 7 -15 5 -27 -8z"/>
<path d="M10120 9660 c-30 -30 -26 -73 11 -104 37 -31 62 -33 90 -5 27 27 20
75 -17 107 -31 27 -58 28 -84 2z"/>
<path d="M11099 9261 c-29 -14 -34 -22 -37 -55 -4 -49 24 -75 79 -76 35 0 79
32 79 57 0 6 10 17 22 25 27 18 16 38 -22 38 -16 0 -31 4 -34 9 -11 17 -54 18
-87 2z"/>
<path d="M10851 8271 c-1 -8 -11 -25 -23 -38 -20 -22 -21 -32 -24 -275 -2
-139 -7 -289 -13 -333 -23 -183 -49 -354 -67 -430 -7 -33 -23 -103 -34 -155
-12 -52 -27 -103 -33 -115 -6 -11 -12 -33 -14 -48 -2 -15 -9 -40 -17 -55 -7
-15 -17 -46 -21 -69 -3 -22 -20 -74 -36 -113 -16 -40 -29 -76 -29 -81 0 -5 -8
-28 -19 -52 -28 -62 -44 -106 -40 -109 2 -2 -4 -14 -13 -27 -13 -18 -14 -28
-6 -47 6 -13 17 -24 23 -24 7 0 18 -7 25 -15 7 -8 29 -15 49 -15 35 0 39 4 75
67 21 36 41 85 44 107 2 23 11 53 19 69 7 15 18 46 22 70 19 92 74 344 83 382
5 22 16 81 23 130 8 50 17 99 19 110 3 11 8 38 11 60 4 22 9 47 12 55 3 8 7
35 8 60 2 25 8 88 14 140 31 274 37 402 26 605 -4 79 -7 92 -29 110 -13 11
-26 27 -29 35 -4 12 -6 12 -6 1z"/>
<path d="M1198 6267 c-42 -33 -13 -60 61 -56 46 3 47 3 56 -31 5 -22 1 -27
-35 -42 -22 -10 -45 -18 -51 -18 -6 0 -9 -10 -7 -22 4 -30 49 -36 86 -11 15
10 66 38 114 62 47 23 89 49 92 57 3 8 -1 26 -10 40 -15 22 -22 24 -103 24
-47 0 -108 3 -136 5 -34 4 -55 1 -67 -8z"/>
<path d="M1525 6091 c-6 -4 -23 -13 -40 -19 -203 -72 -202 -70 -141 -204 16
-37 29 -44 60 -32 21 8 20 33 -3 58 -10 12 -22 31 -25 42 -8 26 29 52 114 79
68 22 80 31 80 61 0 25 -26 33 -45 15z"/>
<path d="M1565 5823 c-117 -42 -148 -88 -125 -184 10 -41 31 -69 53 -69 8 0
47 37 47 45 0 4 -9 20 -21 36 -26 37 -23 83 7 87 17 2 28 -7 46 -40 29 -53 65
-61 60 -13 -1 17 -4 41 -5 55 -1 14 3 27 8 29 16 8 55 -59 55 -94 0 -20 8 -39
23 -53 20 -19 26 -20 41 -9 17 13 17 16 3 48 -8 19 -25 59 -37 89 -30 73 -49
100 -69 99 -9 0 -47 -12 -86 -26z"/>
<path d="M1779 5548 c-12 -13 -30 -36 -40 -53 -19 -29 -21 -30 -102 -30 -75 0
-82 -2 -82 -20 0 -18 8 -21 70 -25 l70 -5 -25 -22 c-14 -12 -36 -31 -50 -42
-24 -19 -24 -21 -8 -37 17 -17 20 -17 63 4 25 12 45 27 45 34 0 6 9 22 21 34
20 21 23 21 72 8 70 -19 94 -17 106 5 14 26 -2 37 -68 44 -29 4 -56 9 -59 11
-2 3 10 23 27 44 35 45 38 57 15 66 -25 10 -32 7 -55 -16z"/>
<path d="M1940 5291 c-14 -5 -47 -22 -74 -40 -28 -17 -62 -31 -77 -31 -30 0
-79 -34 -79 -55 0 -8 9 -19 19 -25 16 -8 40 0 128 46 121 62 138 75 130 98 -7
17 -10 18 -47 7z"/>
<path d="M2030 5137 c-23 -11 -25 -19 -28 -87 -3 -75 -18 -110 -48 -110 -13 0
-19 15 -26 65 -5 29 -41 26 -51 -5 -7 -20 -3 -35 19 -73 33 -53 53 -64 93 -47
40 16 61 59 61 124 0 46 4 57 21 66 30 16 49 5 49 -29 0 -36 22 -46 50 -23 22
17 22 18 4 60 -24 54 -95 83 -144 59z"/>
<path d="M2260 4756 c0 -7 6 -19 14 -25 26 -22 28 -59 5 -90 -12 -16 -18 -34
-15 -40 12 -19 81 -13 100 8 15 16 21 18 37 8 10 -6 19 -17 19 -24 0 -17 17
-25 40 -18 26 8 25 30 -1 56 l-21 21 21 22 c25 26 27 56 5 56 -9 0 -32 -7 -51
-17 l-35 -16 -35 36 c-35 38 -83 51 -83 23z"/>
<path d="M2823 4373 c-15 -21 -45 -55 -65 -76 -47 -49 -51 -91 -12 -136 31
-37 88 -51 111 -28 14 14 12 17 -25 36 -49 25 -56 35 -42 60 11 22 37 18 56
-7 12 -16 45 -13 52 6 2 7 -10 25 -27 41 -26 24 -29 31 -16 41 11 9 23 6 58
-19 68 -49 110 -19 45 32 -18 13 -46 39 -63 56 -16 17 -33 31 -37 31 -4 0 -20
-17 -35 -37z"/>
<path d="M3033 4183 c-18 -45 -36 -168 -28 -200 7 -30 47 -40 77 -19 55 38
149 141 146 161 -5 32 -46 20 -99 -30 -27 -25 -53 -45 -58 -45 -10 0 6 63 29
112 17 35 7 58 -25 58 -21 0 -29 -8 -42 -37z"/>
<path d="M3290 4087 c0 -8 -9 -22 -21 -33 -33 -30 -59 -89 -59 -135 0 -33 6
-47 31 -70 17 -16 39 -30 48 -30 30 -2 56 3 66 13 13 12 -38 58 -64 58 -22 0
-36 29 -21 44 7 7 20 6 43 -3 46 -19 97 -26 97 -12 0 6 -22 26 -50 43 -51 34
-56 44 -27 62 12 8 24 3 54 -20 21 -17 44 -34 51 -38 18 -11 63 20 56 39 -8
19 -67 54 -129 76 -61 22 -75 23 -75 6z"/>
<path d="M8608 4067 c-16 -6 -28 -14 -28 -19 0 -10 -228 -160 -295 -194 -27
-14 -63 -34 -80 -44 -76 -45 -384 -191 -435 -205 -22 -6 -57 -20 -110 -45 -8
-4 -42 -15 -75 -25 -33 -9 -64 -20 -70 -25 -5 -4 -44 -17 -85 -29 -152 -44
-216 -63 -240 -73 -14 -6 -56 -16 -95 -24 -38 -7 -104 -20 -145 -28 -105 -20
-274 -45 -345 -51 -33 -3 -85 -10 -115 -16 -52 -9 -384 -28 -515 -29 -72 0
-127 -27 -118 -58 4 -15 17 -21 66 -26 143 -16 565 0 722 28 17 3 89 12 160
21 169 22 491 95 547 126 10 5 25 9 33 9 18 0 341 115 410 145 17 8 41 16 55
20 22 5 178 79 375 177 167 83 227 117 305 176 47 35 95 68 106 72 48 19 69
83 38 114 -17 18 -27 18 -66 3z"/>
<path d="M3543 3940 c-32 -29 -104 -182 -97 -206 6 -23 79 -74 105 -74 18 0
33 26 23 42 -3 5 -17 13 -30 18 -18 7 -24 17 -24 40 0 34 39 119 64 139 21 18
20 38 -3 50 -14 8 -23 6 -38 -9z"/>
<path d="M3820 3688 c-19 -24 -53 -62 -74 -86 -45 -50 -40 -67 18 -56 28 5 44
16 63 45 14 22 29 39 33 39 4 0 11 -30 15 -66 6 -54 10 -67 28 -73 30 -12 39
-5 113 83 71 85 80 119 33 124 -20 2 -31 -5 -51 -35 -14 -21 -28 -49 -32 -61
-11 -34 -29 -21 -42 29 -30 113 -49 124 -104 57z"/>
<path d="M4562 3528 c-15 -20 -23 -54 -16 -72 9 -24 39 -19 52 9 13 29 27 32
36 9 9 -24 -10 -50 -69 -95 -30 -23 -55 -45 -55 -49 0 -16 27 -28 75 -34 98
-13 120 -12 120 4 0 12 -16 24 -60 44 -5 3 -2 11 7 19 25 20 48 80 41 107 -11
43 -44 70 -84 70 -20 0 -41 -6 -47 -12z"/>
<path d="M4272 3498 c-58 -63 -24 -128 67 -128 42 0 53 4 70 26 27 34 26 57
-1 94 -19 26 -28 30 -68 30 -35 0 -52 -5 -68 -22z"/>
<path d="M4787 3442 c-10 -2 -27 -24 -38 -49 -17 -39 -18 -51 -8 -82 16 -49
36 -69 75 -77 69 -13 144 38 144 98 0 32 -25 94 -42 105 -13 7 -106 11 -131 5z"/>
<path d="M5056 3429 c-41 -11 -66 -38 -66 -71 0 -22 5 -28 21 -28 11 0 29 10
39 23 15 18 21 20 32 9 11 -11 7 -19 -22 -45 -19 -18 -48 -41 -63 -52 -39 -28
-27 -48 36 -62 28 -6 65 -15 81 -19 39 -10 52 13 24 43 -12 13 -27 23 -35 23
-20 0 -16 12 14 35 21 18 27 32 31 78 2 31 3 57 1 57 -2 0 -18 4 -34 8 -17 5
-43 5 -59 1z"/>
<path d="M5205 3401 c-25 -5 -31 -11 -33 -40 l-3 -34 41 7 c23 3 47 7 53 9 7
1 12 -5 12 -13 0 -9 -12 -17 -30 -20 -24 -4 -30 -10 -30 -30 0 -22 5 -25 38
-28 31 -3 37 -7 37 -27 0 -33 -16 -40 -36 -16 -22 25 -54 11 -54 -24 0 -50 89
-63 134 -19 30 30 35 84 11 104 -11 9 -13 23 -9 50 5 33 2 43 -19 64 -27 26
-51 30 -112 17z"/>
<path d="M5575 3313 c-49 -10 -61 -14 -78 -27 -27 -21 -38 -80 -21 -105 20
-27 102 -38 142 -17 34 18 42 33 42 86 0 49 -33 74 -85 63z"/>
</g>
</svg>
